<svg id="Layer_1" data-name="Layer 1" xmlns="http://www.w3.org/2000/svg" viewBox="0 0 32 32"><defs><style>.cls-1{fill:#7dc145;}.cls-2{fill:#fff;}</style></defs><path class="cls-1" d="M26.76332,32H5.23665A5.23673,5.23673,0,0,1,0,26.76334V5.23666A5.23673,5.23673,0,0,1,5.23665,0H26.76332A5.23676,5.23676,0,0,1,32,5.23666V26.76334A5.23676,5.23676,0,0,1,26.76332,32" transform="translate(0 0)"/><path class="cls-2" d="M25.96013,10.34646,23.25934,13.0669a7.83319,7.83319,0,1,1-4.85813-4.51756l1.39212-3.35407a11.44971,11.44971,0,1,0,6.1668,5.15119" transform="translate(0 0)"/><path class="cls-2" d="M19.57963,9.03577c.17029.08751.33857.18045.50341.28155L14.53156,14.9088l2.56984,2.55149,4.20614-4.23668,1.34534-1.35479,2.599-2.61868a11.55972,11.55972,0,0,0-1.18319-1.37786,11.41925,11.41925,0,0,0-3.09761-2.1892Z" transform="translate(0 0)"/></svg>