<svg id="Layer_1" data-name="Layer 1" xmlns="http://www.w3.org/2000/svg" viewBox="0 0 512.02413 511.95539"><defs><style>.cls-1{fill:#065377;}.cls-2{fill:#96b5c4;}.cls-3{fill:#4ba0c1;}.cls-4{fill:#1a7396;}.cls-5{fill:#054b6b;}.cls-6{fill:#197da3;}.cls-7{fill:#50afd3;}</style></defs><path class={classes.cls1} d="M390.43478,140.02231h11.51461c1.35736.842,2.853.42936,4.29824.47373,1.6108-.08694,3.2234.256,4.83344-.01973a264.48,264.48,0,0,1,28.5572,3.2596,243.27517,243.27517,0,0,1,73.7252,24.68231Q607.51538,218.324,640.5723,319.77061a239.92018,239.92018,0,0,1,10.47611,52.51156c.5196,5.734.80376,11.47318.95785,17.2235-.02348.87726-.0855,1.75544-.06471,2.63165a242.56915,242.56915,0,0,1-4.35763,52.17535,201.58108,201.58108,0,0,1-5.4698,22.5407,4.72867,4.72867,0,0,1-1.53719-1.12429c-2.69546-2.60823-5.37059-5.23118-8.14593-7.76323-5.071-4.62642-9.68707-9.73182-14.82638-14.30793-4.47034-3.98043-8.42667-8.49952-12.92345-12.48253-5.017-4.4438-9.44373-9.5196-14.48107-13.9743-4.66279-4.12342-8.77142-8.83256-13.437-12.98573-5.06543-4.50917-9.56686-9.624-14.65508-14.13914-4.53666-4.0257-8.57888-8.57292-13.0855-12.65921-5.55674-5.03844-10.63283-10.59681-16.20228-15.64328-4.14064-3.75181-7.87069-7.92576-12.06308-11.64835-5.07134-4.503-9.56062-9.62923-14.65413-14.14016-4.6-4.07389-8.66073-8.71729-13.26639-12.81718-5.06554-4.50926-9.76227-9.4341-14.61624-14.17586-7.94388-7.76021-16.17116-15.23241-23.86785-23.24576-.27655-.28793-.57132-.55939-.86913-.82564a2.20173,2.20173,0,0,0-1.56717-.47627,4.44559,4.44559,0,0,0-2.11758-1.01844c-2.34966-.75113-4.82862-1.10977-7.03824-2.28911a3.61269,3.61269,0,0,0-1.40017-2.14995q-14.35821-14.36007-28.71957-28.717c-.61516-.61491-1.17845-1.329-2.17879-1.30791-1.31036-2.03829-1.32594-2.08128-3.5374-1.28007-7.88335,2.85606-15.76966,5.70526-23.62152,8.646-2.06732.77425-3.87843.97793-5.91265-.23-7.13948-4.23943-14.36118-8.34032-21.54871-12.4989-3.04422-1.76135-3.03626-1.764-4.98622,1.13053-4.73092,7.02259-9.50725,14.01519-14.16637,21.08505a4.52005,4.52005,0,0,1-3.701,2.22111c-1.59529.10449-3.169.346-4.75311.51078-6.8922.71707-13.79392,1.342-20.69012,2.02153-3.17614.31292-3.00584.33933-3.05933,3.464-.13542,7.91136.71293,15.793.57592,23.70162-.0932,5.38015.54272,4.25493-3.39746,7.68652-6.19581,5.39607-12.203,11.00835-18.32256,16.49276a1.52974,1.52974,0,0,0-.39676,2.27515c.26569.39729.55891.777.85224,1.15483,5.43077,6.99614,10.84445,14.00572,16.31642,20.9695a3.43984,3.43984,0,0,1,.78054,3.26691c-.99418,4.18993-1.79942,8.42447-2.69645,12.63776q-1.4702,6.9053-2.97378,13.80345c-.45251,2.09254-.33187,2.343,1.652,2.91439a4.76293,4.76293,0,0,1,1.95184.8536,1.75008,1.75008,0,0,0,.49271,1.31282c1.3773,1.23117,2.29929,2.86543,3.62282,4.12752,3.12046,2.97555,5.81659,6.34382,8.81476,9.436,1.82177,1.87887,3.6404,3.79375,5.36583,5.772,3.87707,4.44509,7.9199,8.73185,11.99357,12.99343.51413.53781.94033,1.087,1.76908,1.00962.27048,5.9786.08891,11.95974.414,17.94923.52315,9.63937-.03271,19.30908.50488,28.97184.52746,9.48028.02917,18.98831.44352,28.49453.476,10.91972.09585,21.87054.54857,32.80654.25432,6.14305.13221,12.30481.06041,18.45673-.02721,2.33076.4129,4.60633.47182,6.91785.01592.62394.23034,1.09171.93683,1.15994a2.90292,2.90292,0,0,0,.89778,2.14062c2.29765,2.32348,4.5523,4.68092,6.72723,7.12872,3.59934,4.05092,7.69109,7.63242,11.26775,11.73332,3.71722,4.26205,8.03223,7.96942,11.76159,12.25378,3.55647,4.08573,7.695,7.62791,11.26573,11.73455,3.55338,4.08664,7.68239,7.64155,11.2535,11.74523,3.55615,4.08653,7.55048,7.77972,11.29723,11.70064,5.34371,5.59206,10.58355,11.29437,16.10454,16.717,4.72568,4.6415,8.93745,9.775,13.7808,14.30143a7.21046,7.21046,0,0,1,.72965.94415,7.05137,7.05137,0,0,1-1.13423.32885,289.12684,289.12684,0,0,1-30.59966,2.01c-2.55414.03245-5.10874.0294-7.66311.04269-.47222-.057-.943-.14009-1.41693-.167-5.98372-.34079-11.968-.62039-17.93911-1.207a250.35593,250.35593,0,0,1-40.96356-7.46656A256.40044,256.40044,0,0,1,160.662,496.14279a252.44217,252.44217,0,0,1-19.88232-84.95511,7.03154,7.03154,0,0,0,.03615-2.36781,72.47721,72.47721,0,0,0-.82373-7.32008V389.98518a7.51365,7.51365,0,0,1,.25181-1.8786,27.53116,27.53116,0,0,0,.53685-7.3329c.31022-5.58708.84735-11.15143,1.52562-16.70684a237.11778,237.11778,0,0,1,10.93322-48.52075q34.45284-100.199,128.781-148.58479c31.12651-15.93254,64.3861-24.4156,99.28458-26.48176a17.37593,17.37593,0,0,0,3.89821-.014A15.24859,15.24859,0,0,0,390.43478,140.02231Z" transform="translate(-139.98793 -140.02231)"/><path class={classes.cls2} d="M140.77971,411.18768l-.78758-.09239v-9.5955a72.47721,72.47721,0,0,1,.82373,7.32008A7.03154,7.03154,0,0,1,140.77971,411.18768Z" transform="translate(-139.98793 -140.02231)"/><path class={classes.cls2} d="M139.99213,380.86945l.78866-.09577a27.53116,27.53116,0,0,1-.53685,7.3329,7.51365,7.51365,0,0,0-.25181,1.8786Z" transform="translate(-139.98793 -140.02231)"/><path class={classes.cls3} d="M390.43478,140.02231a15.25388,15.25388,0,0,1-5.23211.44331.97692.97692,0,0,0-.04542-.44331Z" transform="translate(-139.98793 -140.02231)"/><path class={classes.cls2} d="M411.06512,140.02231a.50883.50883,0,0,0,.016.454c-1.61007.27571-3.22267-.06721-4.83315.01976q.01-.23687.01941-.47376Z" transform="translate(-139.98793 -140.02231)"/><path class={classes.cls4} d="M406.26736,140.02231q-.00952.23688-.01941.47376c-1.44559-.0444-2.9412.3682-4.29856-.47376Z" transform="translate(-139.98793 -140.02231)"/><path class={classes.cls2} d="M385.15725,140.02231a.97692.97692,0,0,1,.04542.44331,17.37491,17.37491,0,0,1-3.89745.01392.483.483,0,0,0,.01383-.45723Z" transform="translate(-139.98793 -140.02231)"/><path class={classes.cls5} d="M642.11412,466.85337a209.18123,209.18123,0,0,1-9.12522,26.45115,256.3944,256.3944,0,0,1-167.99443,149.227,259.03278,259.03278,0,0,1-33.25852,6.92482c-.78529.11309-1.58929.09628-2.38427.13979a7.17715,7.17715,0,0,0-.72932-.9442c-4.84335-4.52642-9.05512-9.65993-13.7808-14.30143-5.521-5.42268-10.76083-11.125-16.10454-16.717-3.74675-3.92092-7.74108-7.61411-11.29723-11.70064-3.57111-4.10368-7.70012-7.65859-11.2535-11.74523-3.57072-4.10664-7.70926-7.64882-11.26573-11.73455-3.72936-4.28436-8.04437-7.99173-11.76159-12.25378-3.57666-4.1009-7.66841-7.6824-11.26775-11.73332-2.17493-2.4478-4.42958-4.80524-6.72723-7.12872a2.90118,2.90118,0,0,1-.8975-2.13995c.93075-.98306,1.83349-1.99492,2.79629-2.94594,5.61494-5.54635,11.14025-11.18465,16.93181-16.55034q1.9651-1.92185,3.93044-3.84351,7.95281-7.764,15.91284-15.52054c1.20911-1.17367,1.24588-1.13776,2.50936-.0279.17939.15757.34359.33233.51686.497q9.18174,8.72579,18.364,17.451c.88125,1.27279,2.263,1.99621,3.3478,3.05122q7.72056,7.5084,15.506,14.95c.54115.51845,1.02664,1.55473,1.86369,1.18107.81247-.36264.43761-1.43136.42074-2.18265-.18779-8.37032.017-16.73863-.3612-25.11677-.49252-10.91035.02442-21.85094-.54341-32.77529-.27315-5.25536-.13541-10.53207-.18369-15.79911-.0034-3.03775.48917-6.09379-.33588-9.10123l.0918-4.84458a60.99068,60.99068,0,0,1,7.47883,8.33059q3.56449,4.34727,7.1048,8.71432,3.47444,4.26461,6.94716,8.53056,3.54693,4.36146,7.0891,8.72679c2.31677,2.84369,4.654,5.67071,6.96017,8.523,2.35612,2.91414,4.67072,5.86187,7.0305,8.773,2.30957,2.84916,4.66472,5.66128,6.97859,8.507,2.36412,2.9074,4.65868,5.87247,7.0645,8.74459a105.7468,105.7468,0,0,0,7.253,8.527c.29107-1.86428.53152-3.2612.72414-4.66472.59533-4.338,1.26623-8.66848,1.72651-13.0211.36-3.405,1.16816-6.75709,1.18916-10.1995a6.86245,6.86245,0,0,0,.34873-1.13039q1.74367-13.266,3.4601-26.53563c.27016-2.08435.31192-2.097,2.36069-1.89538q11.53586,1.13553,23.07518,2.2324c.88907.612,1.89939.38238,2.87242.41248,4.55432.05584,9.05253.79056,13.58343,1.13844,3.97187.30493,7.92548.8421,11.89291,1.21549a6.53112,6.53112,0,0,0,2.71-.085.83129.83129,0,0,0-.25924-.97613q-7.2409-8.93034-14.4894-17.85452-8.76588-10.77768-17.54336-21.5459C505.46,435.764,500.3701,429.40678,495.232,423.08879q-10.95642-13.4726-21.95268-26.91277-10.50627-12.91207-20.97464-25.8549c-2.13111-2.68433-4.201-5.42085-6.42391-8.02688a15.09318,15.09318,0,0,0-2.70049-3.01224,2.01353,2.01353,0,0,1,.64417-1.2525q5.172-4.63173,10.34723-9.25992c3.1451-2.82954,6.2553-5.69808,9.41952-8.50589a1.36279,1.36279,0,0,0,.24082-2.07795c-.27456-.39191-.56926-.7701-.86289-1.14823-5.434-6.99821-10.84841-14.01192-16.3267-20.97532a3.50914,3.50914,0,0,1-.72045-3.282c2.054-9.43307,4.0083-18.88784,5.99426-28.33572a2.20173,2.20173,0,0,1,1.56717.47627c.29781.26625.59258.53771.86913.82564,7.69669,8.01335,15.924,15.48555,23.86785,23.24576,4.854,4.74176,9.5507,9.6666,14.61624,14.17586,4.60566,4.09989,8.66635,8.74329,13.26639,12.81718,5.09351,4.51093,9.58279,9.63717,14.65413,14.14016,4.19239,3.72259,7.92244,7.89654,12.06308,11.64835,5.56945,5.04647,10.64554,10.60484,16.20228,15.64328,4.50662,4.08629,8.54884,8.63351,13.0855,12.65921,5.08822,4.51514,9.58965,9.63,14.65508,14.13914,4.66557,4.15317,8.7742,8.86231,13.437,12.98573,5.03734,4.4547,9.464,9.5305,14.48107,13.9743,4.49678,3.983,8.45311,8.5021,12.92345,12.48253,5.13931,4.57611,9.75542,9.68151,14.82638,14.30793,2.77534,2.53205,5.45047,5.155,8.14593,7.76323A4.72867,4.72867,0,0,0,642.11412,466.85337Z" transform="translate(-139.98793 -140.02231)"/><path class={classes.cls6} d="M451.91626,284.44451c-1.986,9.44788-3.94029,18.90265-5.99426,28.33572a3.50914,3.50914,0,0,0,.72045,3.282c5.47829,6.9634,10.89266,13.97711,16.3267,20.97532.29363.37813.58833.75632.86289,1.14823a1.36279,1.36279,0,0,1-.24082,2.07795c-3.16422,2.80781-6.27442,5.67635-9.41952,8.50589q-5.16136,4.6436-10.34723,9.25992a2.012,2.012,0,0,0-.64393,1.25247c-1.84271.92564-1.88476.93343-1.57772,2.59067a13.19408,13.19408,0,0,1,.15962,2.84655c-.25538,8.01814.82918,16.00849.48666,24.02714a8.50278,8.50278,0,0,0,.50112,2.557c-1.95114.42268-3.94462.47931-5.91695.7103q-11.24763,1.31726-22.52587,2.3148a5.058,5.058,0,0,0-4.31288,2.45958c-2.00378,3.25266-4.26254,6.34827-6.41769,9.50754-.58335.85515-1.26193,1.672-1.05906,2.82181-1.01671.09933-1.4332.89861-1.92982,1.624q-2.76721,4.04244-5.56054,8.067c-1.06111,1.52372-1.42047,1.62615-2.895.76906-2.20248-1.28008-4.31455-2.73516-6.58965-3.865-1.89282-.93993-3.4443-2.66752-5.77222-2.66673-3.43315-3.15467-7.752-4.9032-11.64937-7.3204a3.51327,3.51327,0,0,0-3.21608-.07084q-6.69313,2.49246-13.39744,4.95492c-2.05688.6208-4.09413,1.289-6.09346,2.08818-2.14077.85568-4.34447,1.55277-6.49743,2.37966a1.4171,1.4171,0,0,1-2.094-.87225c-.21521-.513-.41576-1.03247-.63944-1.54173q-2.01421-4.58587-4.0362-9.16829a1.56393,1.56393,0,0,0-1.20989-1.03557,21.44806,21.44806,0,0,0-.83867-3.46979c-1.41927-3.37626-3.01035-6.68008-4.44629-10.04969a4.33658,4.33658,0,0,0-3.12045-2.644c-4.91138-1.35635-9.779-2.87234-14.69758-4.20088-2.99044-.80775-5.88509-2.00874-9.00663-2.30749a4.7771,4.7771,0,0,0-1.952-.8525c-1.98389-.57141-2.10453-.82185-1.652-2.91439q1.49223-6.90055,2.97378-13.80345c.897-4.21329,1.70227-8.44783,2.69645-12.63776a3.43984,3.43984,0,0,0-.78054-3.26691c-5.472-6.96378-10.88565-13.97336-16.31642-20.9695-.29333-.37787-.58655-.75754-.85224-1.15483a1.52974,1.52974,0,0,1,.39676-2.27515c6.11959-5.48441,12.12675-11.09669,18.32256-16.49276,3.94018-3.43159,3.30426-2.30637,3.39746-7.68652.137-7.9086-.71134-15.79026-.57592-23.70162.05349-3.12472-.11681-3.15113,3.05933-3.464,6.8962-.67949,13.79792-1.30446,20.69012-2.02153,1.58413-.16481,3.15782-.40629,4.75311-.51078a4.52005,4.52005,0,0,0,3.701-2.22111c4.65912-7.06986,9.43545-14.06246,14.16637-21.08505,1.95-2.89451,1.942-2.89188,4.98622-1.13053,7.18753,4.15858,14.40923,8.25947,21.54871,12.4989,2.03422,1.20792,3.84533,1.00424,5.91265.23,7.85186-2.94073,15.73817-5.78993,23.62152-8.646,2.21146-.80121,2.227-.75822,3.53854,1.27991a12.1257,12.1257,0,0,0,.46763,1.60191c3.40929,7.66054,6.87161,15.29777,10.22635,22.982a4.00265,4.00265,0,0,0,2.90114,2.50641c3.47061.92707,6.89123,2.04468,10.37074,2.934,2.7788.71023,5.44515,1.86209,8.33153,2.1507,2.20962,1.17934,4.68858,1.538,7.03824,2.28911A4.44559,4.44559,0,0,1,451.91626,284.44451Zm-19.74285,12.58967c.22267-1.246-.65026-1.45194-1.54987-1.71038-6.21878-1.7864-12.421-3.63138-18.65325-5.36908a4.32767,4.32767,0,0,1-3.06627-2.69735c-2.50576-5.792-5.10057-11.54552-7.66674-17.31138-.8893-1.99819-.91094-2.04024-3.02044-1.28818-5.87025,2.09278-11.76058,4.13743-17.56612,6.39853a4.61565,4.61565,0,0,1-4.46842-.37339c-5.36641-3.167-10.77647-6.2599-16.16207-9.39452-2.02528-1.17879-2.02743-1.20418-3.36977.771-3.50392,5.15578-7.04707,10.28617-10.461,15.501a4.86077,4.86077,0,0,1-3.89738,2.35307c-6.26841.62416-12.52676,1.36012-18.80249,1.894-2.04755.17418-2.26826.58669-2.03362,2.56987.74309,6.2806-.0049,12.62134.82027,18.894a3.82119,3.82119,0,0,1-1.56362,3.5349c-4.65838,4.13462-9.25987,8.33325-13.91108,12.476-1.93336,1.722-1.98658,1.83692-.49,3.8386.14349.19192.30437.37075.45126.56024,3.67023,4.73466,7.284,9.51482,11.04276,14.17809a4.74944,4.74944,0,0,1,.9047,4.441c-1.31993,5.922-2.57327,11.85895-3.84076,17.79259-.52863,2.47468-.41563,2.6108,2.05727,3.31888,6.14321,1.759,12.277,3.551,18.42477,5.29391a2.92493,2.92493,0,0,1,2.13764,1.70831c1.32088,3.08385,2.69262,6.14593,4.04708,9.21536,1.35455,3.06967,2.69637,6.14513,4.07487,9.204.68628,1.52287.913,1.59136,2.59892,1.07689.382-.11658.75929-.24985,1.13506-.3856,5.71108-2.06329,11.435-4.09229,17.12254-6.21866a4.04793,4.04793,0,0,1,3.8323.2861c5.43076,3.21476,10.91775,6.33435,16.37353,9.50706,2.13418,1.24111,2.12891,1.26808,3.54343-.81524,3.50163-5.15732,7.0378-10.292,10.46255-15.5a4.16683,4.16683,0,0,1,3.25383-2.09155c1.98273-.2052,3.96005-.46238,5.94237-.67194,4.67845-.49467,9.35615-.99865,14.03952-1.44256,1.141-.10818,1.4855-.57458,1.38817-1.69661-.56631-6.52547-.16677-13.09143-.78324-19.61547a3.95,3.95,0,0,1,1.49862-3.56606c4.00011-3.55466,7.93793-7.1793,11.9056-10.77053.94678-.85694,1.89432-1.716,2.88488-2.52081a1.44265,1.44265,0,0,0,.14572-2.4268c-.26964-.2911-.46763-.64722-.71387-.9615-3.69456-4.71539-7.3619-9.45263-11.10616-14.12824a5.01193,5.01193,0,0,1-1.085-4.65923c.915-3.80255,1.7015-7.63631,2.52093-11.4615C431.12255,302.19585,431.64043,299.6134,432.17341,297.03418Z" transform="translate(-139.98793 -140.02231)"/><path class={classes.cls6} d="M353.99459,529.701c-5.79156,5.36569-11.31687,11.004-16.93181,16.55034-.9628.951-1.86554,1.96288-2.79629,2.94594-.70677-.0689-.92119-.53667-.93711-1.16061-.05892-2.31152-.499-4.58709-.47182-6.91785.0718-6.15192.19391-12.31368-.06041-18.45673-.45272-10.936-.0726-21.88682-.54857-32.80654-.41435-9.50622.08394-19.01425-.44352-28.49453-.53759-9.66276.01827-19.33247-.50488-28.97184-.32506-5.98949-.14349-11.97063-.41351-17.94911q.03494-1.19015.06884-2.3806c.95588.18085,1.1556.97811,1.44962,1.72826.78628,2.00613,1.60416,3.99987,2.40746,5.99933a1.53851,1.53851,0,0,0,2.24331,1.05314c1.04161-.393,2.14284-.6259,3.21224-.94769,3.74379-1.12653,7.359-2.66,11.18286-3.53369.381,8.05419.0496,16.11654.48282,24.17969.5051,9.40144.18182,18.83135.44639,28.25323.35171,12.52534.32929,25.06583.60358,37.59828.15543,7.10117-.123,14.21141.45556,21.30408C353.49726,528.4039,353.38439,529.149,353.99459,529.701Z" transform="translate(-139.98793 -140.02231)"/><path class={classes.cls5} d="M330.95563,412.05953q-.03426,1.19031-.069,2.38054c-.82921.07722-1.25541-.47193-1.76954-1.00974-4.07367-4.26158-8.1165-8.54834-11.99357-12.99343-1.72543-1.9782-3.54406-3.89308-5.36583-5.772-2.99817-3.09215-5.6943-6.46042-8.81476-9.436-1.32353-1.26209-2.24552-2.89635-3.62282-4.12752a1.75008,1.75008,0,0,1-.49271-1.31282c3.12169.29765,6.01634,1.49864,9.00678,2.30639,4.91853,1.32854,9.7862,2.84453,14.69758,4.20088a4.33658,4.33658,0,0,1,3.12045,2.644c1.43594,3.36961,3.027,6.67343,4.44629,10.04969a21.454,21.454,0,0,1,.83873,3.46982Q330.94651,407.25945,330.95563,412.05953Z" transform="translate(-139.98793 -140.02231)"/><path class={classes.cls5} d="M442.76044,281.137c-2.88638-.28861-5.55273-1.44047-8.33153-2.1507-3.47951-.88933-6.90013-2.00694-10.37074-2.934a4.00265,4.00265,0,0,1-2.90114-2.50641c-3.35474-7.68425-6.81706-15.32148-10.22635-22.982a12.1257,12.1257,0,0,1-.46763-1.60191c.9992-.02091,1.56249.69316,2.17765,1.30807q14.36225,14.35605,28.71957,28.717A3.61269,3.61269,0,0,1,442.76044,281.137Z" transform="translate(-139.98793 -140.02231)"/><path class={classes.cls7} d="M511.8254,479.78238q-11.53806-1.11336-23.07553-2.23257c-2.04877-.20165-2.09053-.189-2.36069,1.89538q-1.72005,13.26909-3.4601,26.53563a6.84924,6.84924,0,0,1-.34876,1.13013,5.41691,5.41691,0,0,1-1.35271-1.33824q-3.67552-4.5656-7.37183-9.11442Q464.1265,484.68,454.393,472.70508c-5.72512-7.06277-11.4185-14.15123-17.1464-21.21175q-10.325-12.72714-20.70044-25.41318c-1.92135-2.33758-3.607-4.88-5.85672-6.94218q-.0741-.418-.14671-.83727c1.01707-.15224,1.35406-1.04561,1.83995-1.7427,1.81945-2.61009,3.607-5.24241,5.40271-7.869.64022-.93645,1.30887-1.82537,2.5848-1.89064,2.93446-.15014,5.83379-.62323,8.75-.93648,5.43938-.5842,10.89705-.99636,16.34223-1.52966a12.38182,12.38182,0,0,0,3.93931-.75709c1.09716-.50689.10264-2.16183.98286-3.01777,1.77456,2.15866,3.55662,4.31121,5.32239,6.47708Q466.60356,420.4,477.48959,433.77419q9.96906,12.26756,19.9044,24.56262,8.66324,10.703,17.31384,21.41635Z" transform="translate(-139.98793 -140.02231)"/><path class={classes.cls7} d="M353.99459,529.701c-.6102-.552-.49733-1.2971-.55524-2.0069-.57851-7.09267-.30013-14.20291-.45556-21.30408-.27429-12.53245-.25187-25.07294-.60358-37.59828-.26457-9.42188.05871-18.85179-.44639-28.25323-.43322-8.06315-.10179-16.1255-.48212-24.17966q.07977-.22652.15811-.4531a8.99722,8.99722,0,0,0,3.24888-.7059c2.9659-.92479,5.86524-2.05014,8.87748-2.84313a2.18779,2.18779,0,0,1,2.53344.74432q3.94294,4.78248,7.88491,9.56575,3.86661,4.69191,7.73378,9.38341c2.88814,3.48888,5.7172,7.0308,8.71931,10.41912,1.12623,1.27112,1.6979,3.14255,3.59495,3.66938q.1175.94421.23505,1.88839c-.0412.87527-.09013,1.75022-.12214,2.62585-.11379,3.11312.39333,6.19438.42862,9.30908.0976,8.60945.13306,17.21984.31143,25.83032q.41606,20.08845.63676,40.18791a2.96977,2.96977,0,0,1-.46423,2.27682q-9.18207-8.72542-18.364-17.451c-.17327-.16466-.33747-.33942-.51686-.497-1.26348-1.10986-1.30025-1.14577-2.50936.0279q-7.97492,7.74126-15.91284,15.52054Q355.9582,527.77762,353.99459,529.701Z" transform="translate(-139.98793 -140.02231)"/><path class={classes.cls6} d="M514.70783,479.75319q-8.65647-10.70854-17.31384-21.41638-9.9453-12.28689-19.9044-24.56262-10.87537-13.38286-21.78266-26.73977c-1.76577-2.16587-3.54783-4.31842-5.32227-6.47726q-.47637-.72616-.95308-1.45192c.84877-1.15208.46142-2.44719.39128-3.69123-.03985-.7071-.36917-1.4101-.3439-2.1068.225-6.20305-.4275-12.38008-.50191-18.57256-.03388-2.82062.46844-3.42367,3.32765-4.41353q10.48584,12.92865,20.97464,25.8549,10.96,13.46966,21.95268,26.91277c5.13808,6.318,10.228,12.67519,15.35977,18.99833q8.75451,10.78686,17.54336,21.5459,7.25434,8.91939,14.4894,17.85452a.83129.83129,0,0,1,.25924.97613,6.53112,6.53112,0,0,1-2.71.085c-3.96743-.37339-7.921-.91056-11.89291-1.21549-4.5309-.34788-9.02911-1.0826-13.58346-1.1385A3.74341,3.74341,0,0,1,514.70783,479.75319Z" transform="translate(-139.98793 -140.02231)"/><path class={classes.cls6} d="M410.6902,419.13738c2.24889,2.06279,3.93458,4.60519,5.85593,6.94277q10.40616,12.66064,20.70044,25.41318c5.7279,7.06052,11.42128,14.149,17.1464,21.21175q9.71747,11.98785,19.46281,23.95321,3.69529,4.5496,7.37183,9.11442a5.41691,5.41691,0,0,0,1.35271,1.33824c-.021,3.44267-.8291,6.79471-1.18913,10.19976-.46028,4.35262-1.13118,8.68313-1.72651,13.0211-.19262,1.40352-.43307,2.80044-.72414,4.66472a105.7468,105.7468,0,0,1-7.253-8.527c-2.40582-2.87212-4.70038-5.83719-7.0645-8.74459-2.31387-2.84568-4.669-5.6578-6.97859-8.507-2.35978-2.91113-4.67438-5.85886-7.0305-8.773-2.30614-2.85227-4.6434-5.67929-6.96017-8.523q-3.55078-4.35829-7.0891-8.72679-3.47062-4.26773-6.94716-8.53056-3.55087-4.35844-7.1048-8.71432a60.99068,60.99068,0,0,0-7.47883-8.33059q-.0459,2.42228-.09212,4.84414c-.82573-.97077-.43366-2.13887-.51436-3.22657a9.75706,9.75706,0,0,0-2.09978-5.937c-4.599-5.49138-8.96237-11.18-13.559-16.67336-1.41648-1.69283-2.53973-3.70259-4.50653-4.90584-.31678-1.585-1.96-2.332-2.41838-3.82754a3.203,3.203,0,0,1,1.79708.52628c1.905,1.15226,3.84678,2.24353,5.76325,3.37714,1.71476,1.01428,1.90077,1.034,3.06574-.64209C405.23958,427.16966,407.95363,423.14569,410.6902,419.13738Z" transform="translate(-139.98793 -140.02231)"/><path class={classes.cls6} d="M395.22805,528.25707a2.96977,2.96977,0,0,0,.46423-2.27682q-.19318-20.096-.63676-40.18791c-.17837-8.61048-.21383-17.22087-.31143-25.83032-.03529-3.1147-.54241-6.196-.42862-9.30908.032-.87563.08094-1.75058.12115-2.62591a4.67741,4.67741,0,0,1,2.369,1.91192c2.082,2.49818,4.12688,5.02734,6.18838,7.54264,2.81584,3.43577,5.53783,6.95569,8.49809,10.26223,1.18316,1.32149,1.86806,3.21107,3.78582,3.82171.04828,5.267-.08946,10.54375.18369,15.79911.56783,10.92435.05089,21.86494.54341,32.77529.37819,8.37814.17341,16.74645.3612,25.11677.01687.75129.39173,1.82-.42074,2.18265-.837.37366-1.32254-.66262-1.86369-1.18107q-7.77684-7.45017-15.506-14.95C397.49108,530.25328,396.1093,529.52986,395.22805,528.25707Z" transform="translate(-139.98793 -140.02231)"/><path class={classes.cls4} d="M415.27794,471.56553c-1.91776-.61064-2.60266-2.50022-3.78582-3.82171-2.96026-3.30654-5.68225-6.82646-8.49809-10.26223-2.0615-2.5153-4.10634-5.04446-6.18838-7.54264a4.67746,4.67746,0,0,0-2.369-1.91192q-.1161-.94412-.23359-1.88841.03-7.20889.059-14.41754c1.96683,1.20325,3.09008,3.213,4.50656,4.90584,4.59664,5.4934,8.96006,11.182,13.559,16.67336a9.75706,9.75706,0,0,1,2.09978,5.937c.0807,1.0877-.31137,2.2558.51436,3.22657C415.76711,465.47174,415.27454,468.52778,415.27794,471.56553Z" transform="translate(-139.98793 -140.02231)"/><path class={classes.cls4} d="M452.3047,370.32112c-2.85921.98986-3.36153,1.59291-3.32765,4.41353.07441,6.19248.72692,12.36951.50191,18.57256-.02527.6967.30405,1.3997.3439,2.1068.07014,1.244.45749,2.53915-.39113,3.69123-.32844-.34278-.67712-.66859-.98222-1.03108-1.89957-2.25715-3.63061-4.65594-5.69929-6.77086a8.50278,8.50278,0,0,1-.50112-2.557c.34252-8.01865-.742-16.009-.48666-24.02714a13.19408,13.19408,0,0,0-.15962-2.84655c-.307-1.65724-.265-1.665,1.57772-2.59067a15.10033,15.10033,0,0,1,2.70025,3.01227C448.10371,364.90027,450.17359,367.63679,452.3047,370.32112Z" transform="translate(-139.98793 -140.02231)"/><path class={classes.cls4} d="M514.70783,479.75316a3.74407,3.74407,0,0,0-.01039.44147c-.973-.03-1.98332.19954-2.87239-.41242Q513.26679,479.76784,514.70783,479.75316Z" transform="translate(-139.98793 -140.02231)"/><path class={classes.cls7} d="M432.17341,297.03418c-.533,2.57922-1.05086,5.16167-1.60252,7.73689-.81943,3.82519-1.60592,7.659-2.52093,11.4615a5.01193,5.01193,0,0,0,1.085,4.65923c3.74426,4.67561,7.4116,9.41285,11.10616,14.12824.24624.31428.44423.6704.71387.9615a1.44265,1.44265,0,0,1-.14572,2.4268c-.99056.80479-1.9381,1.66387-2.88488,2.52081-3.96767,3.59123-7.90549,7.21587-11.9056,10.77053a3.95,3.95,0,0,0-1.49862,3.56606c.61647,6.524.21693,13.09.78324,19.61547.09733,1.122-.24715,1.58843-1.38817,1.69661-4.68337.44391-9.36107.94789-14.03952,1.44256-1.98232.20956-3.95964.46674-5.94237.67194a4.16683,4.16683,0,0,0-3.25383,2.09155c-3.42475,5.208-6.96092,10.34268-10.46255,15.5-1.41452,2.08332-1.40925,2.05635-3.54343.81524-5.45578-3.17271-10.94277-6.2923-16.37353-9.50706a4.04793,4.04793,0,0,0-3.8323-.2861c-5.68752,2.12637-11.41146,4.15537-17.12254,6.21866-.37577.13575-.753.269-1.13506.3856-1.6859.51447-1.91264.446-2.59892-1.07689-1.3785-3.05892-2.72032-6.13438-4.07487-9.204-1.35446-3.06943-2.7262-6.13151-4.04708-9.21536a2.92493,2.92493,0,0,0-2.13764-1.70831c-6.14775-1.74289-12.28156-3.5349-18.42477-5.29391-2.4729-.70808-2.5859-.8442-2.05727-3.31888,1.26749-5.93364,2.52083-11.87057,3.84076-17.79259a4.74944,4.74944,0,0,0-.9047-4.441c-3.75877-4.66327-7.37253-9.44343-11.04276-14.17809-.14689-.18949-.30777-.36832-.45126-.56024-1.49657-2.00168-1.44335-2.11659.49-3.8386,4.65121-4.14278,9.2527-8.34141,13.91108-12.476a3.82119,3.82119,0,0,0,1.56362-3.5349c-.82517-6.27261-.07718-12.61335-.82027-18.894-.23464-1.98318-.01393-2.39569,2.03362-2.56987,6.27573-.53389,12.53408-1.26985,18.80249-1.894a4.86077,4.86077,0,0,0,3.89738-2.35307c3.41389-5.21488,6.957-10.34527,10.461-15.501,1.34234-1.9752,1.34449-1.94981,3.36977-.771,5.3856,3.13462,10.79566,6.22755,16.16207,9.39452a4.61565,4.61565,0,0,0,4.46842.37339c5.80554-2.2611,11.69587-4.30575,17.56612-6.39853,2.1095-.75206,2.13114-.71,3.02044,1.28818,2.56617,5.76586,5.161,11.51937,7.66674,17.31138a4.32767,4.32767,0,0,0,3.06627,2.69735c6.23221,1.7377,12.43447,3.58268,18.65325,5.36908C431.52315,295.58224,432.39608,295.78819,432.17341,297.03418Z" transform="translate(-139.98793 -140.02231)"/><path class={classes.cls3} d="M442.75022,391.3033c2.06868,2.11492,3.79972,4.51371,5.69929,6.77086.3051.36249.65378.6883.98222,1.03108q.4764.72587.95293,1.45192c-.88034.85612.11418,2.51106-.983,3.01795a12.38182,12.38182,0,0,1-3.93931.75709c-5.44518.5333-10.90285.94546-16.34223,1.52966-2.91619.31325-5.81552.78634-8.75.93648-1.27593.06527-1.94458.95419-2.5848,1.89064-1.7957,2.62661-3.58326,5.25893-5.40271,7.869-.48589.69709-.82288,1.59046-1.83962,1.74264a8.26372,8.26372,0,0,1-1.949-2.01257c-2.054-2.36637-3.69437-5.08352-6.07564-7.1713-.20352-1.14921.47506-1.9661,1.05841-2.82125,2.15515-3.15927,4.41391-6.25488,6.41769-9.50754a5.058,5.058,0,0,1,4.31288-2.45958q11.27952-.99406,22.52587-2.3148C438.8056,391.78261,440.79908,391.726,442.75022,391.3033Z" transform="translate(-139.98793 -140.02231)"/><path class={classes.cls3} d="M394.262,431.72108q-.02925,7.20872-.059,14.41754c-1.89755-.52675-2.46922-2.39818-3.59545-3.6693-3.00211-3.38832-5.83117-6.93024-8.71931-10.41912q-3.87695-4.68339-7.73378-9.38341-3.94189-4.78335-7.88491-9.56575a2.18779,2.18779,0,0,0-2.53344-.74432c-3.01224.793-5.91158,1.91834-8.87748,2.84313a8.99541,8.99541,0,0,1-3.24912.70581q-.05124-2.64822-.102-5.29629,6.69961-2.475,13.39744-4.95492a3.51327,3.51327,0,0,1,3.21608.07084c3.89733,2.4172,8.21622,4.16573,11.65029,7.3202a6.35136,6.35136,0,0,0,.561,1.03574c2.23295,2.76416,4.46152,5.53247,6.73907,8.25976a48.17289,48.17289,0,0,0,4.77224,5.55255C392.302,429.38912,393.94528,430.13605,394.262,431.72108Z" transform="translate(-139.98793 -140.02231)"/><path class={classes.cls4} d="M391.84368,427.89354a48.17289,48.17289,0,0,1-4.77224-5.55255c-2.27755-2.72729-4.50612-5.4956-6.73907-8.25976a6.35136,6.35136,0,0,1-.561-1.03574c2.327-.00059,3.87848,1.727,5.7713,2.66693,2.2751,1.12981,4.38717,2.58489,6.58965,3.865,1.47458.85709,1.83394.75466,2.895-.76906q2.79954-4.02009,5.56054-8.067c.49662-.72543.91311-1.52471,1.92982-1.624,2.38192,2.08722,4.02225,4.80437,6.07629,7.17074a8.26372,8.26372,0,0,0,1.949,2.01257q.07251.419.14638.83733c-2.73578,4.00772-5.44983,8.03169-8.21966,12.0169-1.165,1.67613-1.351,1.65637-3.06574.64209-1.91647-1.13361-3.85823-2.22488-5.76325-3.37714A3.203,3.203,0,0,0,391.84368,427.89354Z" transform="translate(-139.98793 -140.02231)"/><path class={classes.cls4} d="M351.5076,410.60937q.05086,2.64808.102,5.29629-.07835.22669-.15787.45319c-3.82451.87369-7.43977,2.40713-11.18356,3.53366-1.0694.32179-2.17063.55471-3.21224.94769a1.53851,1.53851,0,0,1-2.24331-1.05314c-.8033-1.99946-1.62118-3.9932-2.40746-5.99933-.294-.75015-.49374-1.54741-1.4496-1.72826q-.009-4.8-.01826-9.60007a1.56385,1.56385,0,0,1,1.20983,1.03554q2.01843,4.584,4.0362,9.16829c.22368.50926.42423,1.02869.63944,1.54173a1.4171,1.4171,0,0,0,2.094.87225c2.153-.82689,4.35666-1.524,6.49743-2.37966C347.41347,411.89838,349.45072,411.23017,351.5076,410.60937Z" transform="translate(-139.98793 -140.02231)"/></svg>