<svg id="Layer_1" data-name="Layer 1" xmlns="http://www.w3.org/2000/svg" viewBox="0 0 470.27026 786.40491"><defs><style>.cls-1{fill:#3ea5c6;}.cls-2{fill:#50afd3;}.cls-3{fill:#065c77;}.cls-4{fill:#045063;}.cls-5{fill:#066d8e;}.cls-6{fill:#50b9d3;}.cls-7{fill:#1988a3;}.cls-8{fill:#3eb035;}.cls-9{fill:#065377;}.cls-10{fill:#054b6b;}.cls-11{fill:#5ef946;}.cls-12{fill:#54da45;}.cls-13{fill:#197da3;}</style></defs><path class={classes.cls1} d="M154.45,344.8198a4.69656,4.69656,0,0,0,.78072-2.301c2.18073-10.17277,8.06366-17.72265,16.725-23.13219a19.83929,19.83929,0,0,1,15.99149-2.16077,39.57018,39.57018,0,0,1,15.446,8.3647c2.70677,2.24913,5.25275,4.67023,7.77335,7.12148.52577.51139.939,1.18908,1.74852,1.33614,2.885,3.23318,5.81742,6.426,8.64264,9.71109a39.87123,39.87123,0,0,1,8.08746,13.59425,2.44173,2.44173,0,0,0,.3394,1.26922,19.11417,19.11417,0,0,1,1.26453,7.80584,20.85932,20.85932,0,0,1-1.58872,8.20731,28.3797,28.3797,0,0,1-10.55891,13.89147c-1.96258,1.40183-4.2014,2.26328-6.1857,3.59019a43.64571,43.64571,0,0,1-7.01361,1.36678,31.32549,31.32549,0,0,1-18.98437-5.046,106.26932,106.26932,0,0,1-24.50352-21.54049,32.69458,32.69458,0,0,1-7.1702-15.74733,3.74126,3.74126,0,0,0-.794-2.27976Zm41.71181-4.99863c-7.05043.05291-12.23759,2.0566-15.47547,7.75844a18.9443,18.9443,0,0,0-2.39891,8.29158,11.664,11.664,0,0,0,1.5119,6.87645,52.04367,52.04367,0,0,0,9.675,11.422,4.505,4.505,0,0,0,.9616.56978c3.40942,1.86369,6.61832.9362,9.76261-.724,5.93492-3.13362,10.32814-8.08616,14.94737-12.76115a13.375,13.375,0,0,0,1.948-2.72217c1.41187-2.43572,1.2127-4.10084-.78118-6.05635a77.3184,77.3184,0,0,0-12.56213-10.05384C201.14964,340.76248,198.47785,339.638,196.16183,339.82117Z" transform="translate(-154.45002 -6.27025)"/><path class={classes.cls2} d="M624.63107,792.26439a1.33175,1.33175,0,0,1,.08921.41077H417.71136a.56129.56129,0,0,1,.05276-.38346q9.44151-.01837,18.88431-.03368,86.34675-.00379,172.69349-.00115Q616.98651,792.25687,624.63107,792.26439Z" transform="translate(-154.45002 -6.27025)"/><path class={classes.cls1} d="M490.71613,201.6063c1.01334-2.73494,1.943-5.50446,3.05568-8.19836,3.37127-8.16222,8.39883-15.01808,15.96566-19.80646a35.11578,35.11578,0,0,1,21.91812-5.18379,7.09689,7.09689,0,0,1,4.01109,1.24843,1.01707,1.01707,0,0,1-1.02963.96154c-3.888.45135-6.29181,2.92413-7.93953,6.1813-2.979,5.88874-3.33708,12.14249-2.103,18.52037.57892,2.9919,1.29647,5.96233,2.08213,8.90755a47.9715,47.9715,0,0,0,4.98856,11.4908c1.817,3.15724,4.2166,5.69866,8.44045,4.864.66863,2.991,1.23793,6.00839,2.02459,8.968,2.30305,8.66474,6.041,16.75591,10.07528,24.72067.77888,1.53771,1.46748,3.13541,2.38955,4.58323a24.59062,24.59062,0,0,1,3.04969,8.6066,353.07359,353.07359,0,0,0,12.31159,45.96624,314.72865,314.72865,0,0,0,19.90393,44.96729c1.235,2.31281,2.42627,4.65174,3.55349,7.0187a30.50335,30.50335,0,0,1,2.92963,13.2715q.02394,32.16783.09773,64.33567c.036,11.99341.56838,23.97706.82192,35.96624.12047,5.69567.0835,11.39616.0286,17.09364a151.6307,151.6307,0,0,1-2.6278,26.1234c-.63435,3.43469-.88158,6.94883-1.35289,10.42232a201.51753,201.51753,0,0,0-1.80771,36.99962c.4286,8.75393.88317,17.50907,1.59938,26.24784.41,5.00226.65517,10.01782,1.04328,15.02212.50962,6.57115,1.08038,13.13757,1.63714,19.705.48086,5.67226.95165,11.34562,1.476,17.01392.68286,7.3824,1.411,14.76064,2.12587,22.14008q.7149,7.38042,1.44685,14.75926c.46949,4.77012.956,9.5386,1.39958,14.31114.0735.79087.26854,1.31015,1.17949,1.22268-.69967.73109-1.69024.41406-2.52894.63966-3.38847.91181-6.83044,1.62345-10.2489,2.425-7.92767,1.85877-15.92131,3.38436-23.95664,4.68578-5.37788.87092-10.75968,1.7374-16.16249,2.42778-4.44114.56752-8.902,1.01488-13.34974,1.52955-5.78746.66977-11.59429,1.08378-17.39191,1.5824-4.98359.42862-9.99283.63664-14.99127.89741-5.378.28065-10.77086.19994-16.15848.45675-8.00806.38159-16.0181-.21895-24.02764-.37346-5.00666-.09659-9.9981-.53142-14.99592-.82142-4.40482-.2556-8.79647-.67-13.176-1.122-1.82224-.188-3.72038.04033-5.49505-.61708.80572-.21132.70187-.84972.66915-1.44482-.17691-3.21662-.32738-6.43517-.546-9.649-.3608-5.30512-.7724-10.60667-1.15227-15.91047-.47078-6.57329-.99993-13.14092-1.702-19.6946-.3908-3.64805-.70143-7.30461-1.05548-10.95666-.065-.67011-.17554-1.33571-.246-2.00532-.08531-.81054-.54242-1.09075-1.33333-1.19834-18.73107-2.54811-35.77951-9.59008-51.75357-19.46933a181.07793,181.07793,0,0,1-28.08456-21.65755c-13.17861-12.26665-25.46837-25.39654-37.76338-38.53158a531.50541,531.50541,0,0,0-38.31077-37.33231c-.33723-.29445-.64979-.61708-.97342-.92647.299-.01407.59748-.04072.896-.04072q55.27583-.001,110.55168-.00049c.973,0,1.946-.03506,2.91906-.05346.59874.02489,1.19736.071,1.796.0711q34.87321.0051,69.74641.01516a32.73408,32.73408,0,0,0,7.545-.97917,37.81557,37.81557,0,0,0,20.37662-12.82362c1.1877-1.38768,1.976-2.84673.90726-4.67-.43554-4.00628-1.39647-7.92438-1.952-11.91945-.734-5.27875-.84956-10.57859-1.09044-15.8636a163.19628,163.19628,0,0,1,.71548-18.36983q.392-5.81842,1.09253-11.59622c.66569-5.47259,1.55529-10.92372,2.50225-16.364q2.229-12.80589,5.29039-25.42753a22.20865,22.20865,0,0,0,.68156-5.31767q-.03987-31.05186-.01211-62.10381a9.151,9.151,0,0,1,.19614-2.90426c5.15235,4.38413,10.30466,8.7683,15.61672,13.28834,1.191-3.51923,2.193-6.73417,3.3799-9.87934a4.12927,4.12927,0,0,0-.48954-4.14688,73.73228,73.73228,0,0,1-10.38679-25.20533,135.69506,135.69506,0,0,1-2.30338-33.10124,12.041,12.041,0,0,0-.50877-4.41677c-.85793-2.55333-1.60833-5.14867-2.27323-7.75966-1.107-4.34716-2.11094-8.72058-3.15826-13.08293-.19191-4.1059-1.10753-8.11988-1.60034-12.18943-.49358-4.07628-.94854-8.16784-1.08868-12.2456a131.28808,131.28808,0,0,1,.252-17.94593c.3655-3.56493.83648-7.10138,1.37607-10.63865C489.94642,205.40111,490.68086,203.56886,490.71613,201.6063Z" transform="translate(-154.45002 -6.27025)"/><path class={classes.cls3} d="M430.92785,711.76731c1.77467.65741,3.67281.42906,5.49505.61708,4.37953.452,8.77118.86642,13.176,1.122,4.99782.29,9.98926.72483,14.99592.82142,8.00954.15451,16.01958.75505,24.02764.37346,5.38762-.25681,10.78049-.1761,16.15848-.45675,4.99844-.26077,10.00768-.46879,14.99127-.89741,5.79762-.49862,11.60445-.91263,17.39191-1.5824,4.44771-.51467,8.9086-.962,13.34974-1.52955,5.40281-.69038,10.78461-1.55686,16.16249-2.42778,8.03533-1.30142,16.029-2.827,23.95664-4.68578,3.41846-.80159,6.86043-1.51323,10.2489-2.425.8387-.2256,1.82927.09143,2.52894-.63966,3.241-.88736,6.48419-1.775,9.842-2.69393.78674,1.95355.71442,4.06007.97094,6.07983,1.18715,9.34723,2.23419,18.7122,3.36435,28.06684.96854,8.01674,1.98493,16.02782,2.968,24.04286a14.49044,14.49044,0,0,1,.02824,1.56466,8.17527,8.17527,0,0,0-1.76811.22258c-3.47249.8429-6.92888,1.81691-10.44905,2.38454-6.16239.99373-12.276,2.28009-18.50886,2.88409-3.9914.38681-7.9626.98131-11.96611,1.33582-2.0057.17758-4.0435.11923-6.01.45719a76.08971,76.08971,0,0,1-11.58808.71274c-11.57863.20566-23.16861.37483-34.73889-.72747-3.995-.3806-8.00551-.74477-12.01352-1.05433-1.46935-.11346-2.96822-.23379-4.43721-.4517-3.527-.52318-7.03427-1.18054-10.56288-1.69135-3.97607-.5756-7.91851-1.335-11.83638-2.19411-5.96842-1.30883-11.89577-2.77239-17.77978-4.4582-5.89974-1.6902-11.63189-3.80485-17.36288-5.94462a121.02438,121.02438,0,0,1-18.60837-8.86168,82.08483,82.08483,0,0,1-12.26355-8.20459,3.86475,3.86475,0,0,0-1.99007-.96527c-.22564-4.34139.04727-8.68146.04052-13.02241a52.93612,52.93612,0,0,1,.36352-7.28933C423.11442,710.764,427.02114,711.26566,430.92785,711.76731Z" transform="translate(-154.45002 -6.27025)"/><path class={classes.cls4} d="M383.04276,532.89593c-.973.01868-1.946.05374-2.91895.05374q-55.27584.00239-110.55168.00049c-.29851,0-.597.02665-.896.04072q-8.8611-.01171-17.72129-.02742c-.81938-.0022-1.63861-.06357-2.458-.09753-.90984-.66532-1.9295-.28483-2.907-.30565a26.24049,26.24049,0,0,1-10.96848-2.94778c-13.76727-6.83318-21.078-17.958-21.64353-33.36723-.151-4.1159-.00126-8.24273.0104-12.36412a4.788,4.788,0,0,1,2.17355.44065,58.34613,58.34613,0,0,0,12.2886,3.41365,27.12882,27.12882,0,0,0,12.84151-1.09136c5.929-2.115,10.13527-6.26615,13.23759-11.58a20.38123,20.38123,0,0,0,2.21887-15.98925q30.34755.00771,60.69538.01725c1.04806.00044,2.0961.04574,3.14415.0702a5.86843,5.86843,0,0,0,1.42732,2.48843c4.09537,5.66938,8.17829,11.34757,12.52074,16.83477,2.90836,3.675,5.74616,7.40378,8.80711,10.95842a1.2919,1.2919,0,0,0,1.88887.37692c.6501-.33247,1.13068-1.03059,1.97569-.95867-.19061.48038-.40209.95373-.56819,1.4424a6.63892,6.63892,0,0,0,.45944,5.982,6.75025,6.75025,0,0,0,6.8014,3.24272,2.84592,2.84592,0,0,0,.5358,2.826c2.07775,2.66416,4.528,4.98144,6.80565,7.43373,5.20148,5.6005,10.74858,10.88,16.16066,16.28447.58034.57961,1.257,1.0673,1.85234,1.61317C379.993,529.28041,382.02942,530.62859,383.04276,532.89593Zm-63.0319-40.14272c-.0182,3.637,2.768,6.79269,6.03823,6.80846,4.2703.0206,7.12939-2.62536,7.269-6.64143a6.67411,6.67411,0,0,0-6.59847-6.81092A6.59708,6.59708,0,0,0,320.01086,492.75321Z" transform="translate(-154.45002 -6.27025)"/><path class={classes.cls4} d="M418.70061,730.56082a3.86475,3.86475,0,0,1,1.99007.96527,82.08483,82.08483,0,0,0,12.26355,8.20459,121.02438,121.02438,0,0,0,18.60837,8.86168c5.731,2.13977,11.46314,4.25442,17.36288,5.94462,5.884,1.68581,11.81136,3.14937,17.77978,4.4582,3.91787.85912,7.86031,1.61851,11.83638,2.19411,3.52861.51081,7.0359,1.16817,10.56288,1.69135,1.469.21791,2.96786.33824,4.43721.4517,4.008.30956,8.01853.67373,12.01352,1.05433,11.57028,1.1023,23.16026.93313,34.73889.72747a76.08971,76.08971,0,0,0,11.58808-.71274c1.96645-.338,4.00425-.27961,6.01-.45719,4.00351-.35451,7.97471-.949,11.96611-1.33582,6.23289-.604,12.34647-1.89036,18.50886-2.88409,3.52017-.56763,6.97656-1.54164,10.44905-2.38454a8.17527,8.17527,0,0,1,1.76811-.22258q1.38877,11.11721,2.77653,22.23475c.39673,3.1876.77995,6.37686,1.17289,9.565a11.93449,11.93449,0,0,1,.09779,3.34667q-7.64526-.00271-15.28959-.0067-86.34675-.00066-172.69349.00115-9.4425.00041-18.88431.03368c-.298-4.4098-.05688-8.82272.00616-13.23169.2247-15.72058.53085-31.43994.81167-47.15975C418.58992,731.45323,418.65966,731.0073,418.70061,730.56082Z" transform="translate(-154.45002 -6.27025)"/><path class={classes.cls1} d="M255.74852,459.0742a20.383,20.383,0,0,1-2.219,15.98988c-3.10232,5.31386-7.30857,9.465-13.23759,11.58a27.12882,27.12882,0,0,1-12.84151,1.09136,58.34613,58.34613,0,0,1-12.2886-3.41365,4.788,4.788,0,0,0-2.17355-.44065,6.46549,6.46549,0,0,0-2.60925-1.24087c-6.69894-2.61086-13.33985-5.35259-19.76662-8.58882a53.77091,53.77091,0,0,1-8.95005-5.575c-6.15813-4.804-9.50392-11.30372-10.92779-18.813-2.02173-10.66229.66638-20.17548,7.47692-28.56949,5.23966-6.45794,12.0878-8.46886,20.083-7.22719a30.85369,30.85369,0,0,1,11.86371,4.56248c.8836.56005,1.81919,1.03807,2.7309,1.55373,4.30277,2.96475,8.5894,5.9534,12.91741,8.88085,1.41089.95431,2.58444,2.26795,4.24663,2.84577a52.9094,52.9094,0,0,0,6.31363,4.92037c5.83963,4.3145,11.319,8.99319,15.67244,14.86819A54.02545,54.02545,0,0,1,255.74852,459.0742Zm-45.10058,1.74817a5.37674,5.37674,0,0,0,1.61109,4.60779A57.11858,57.11858,0,0,0,227.11657,476.814a8.61431,8.61431,0,0,0,9.482-.57565c3.63247-2.44943,5.99982-5.97165,8.17589-9.648a12.39187,12.39187,0,0,0,1.34843-2.83154c1.23411-4.33892.88866-6.17687-3.16-9.32646-5.28655-4.1126-11.40025-6.73584-17.68972-8.94654a6.11016,6.11016,0,0,0-3.29938-.08915,12.96468,12.96468,0,0,0-6.955,4.21032A15.14993,15.14993,0,0,0,210.64794,460.82237Z" transform="translate(-154.45002 -6.27025)"/><path class={classes.cls4} d="M230.05313,431.70969c-1.66218-.578-2.83573-1.8916-4.24662-2.84591-4.328-2.92745-8.61464-5.9161-12.91742-8.88085q.01329-13.93261.02665-27.86542c1.98431-1.32688,4.22313-2.18833,6.18571-3.59016A28.376,28.376,0,0,0,229.66009,374.635c.70356.76766.3697,1.70971.37081,2.56517Q230.06639,404.45492,230.05313,431.70969Z" transform="translate(-154.45002 -6.27025)"/><path class={classes.cls3} d="M245.58987,532.56028c.97749.02082,1.99715-.35967,2.907.30565A4.96457,4.96457,0,0,1,245.58987,532.56028Z" transform="translate(-154.45002 -6.27025)"/><path class={classes.cls5} d="M490.838,344.64338a9.151,9.151,0,0,0-.19614,2.90426q-.00932,31.05191.01211,62.10381a22.20865,22.20865,0,0,1-.68156,5.31767q-3.06528,12.62525-5.29039,25.42753c-.947,5.44025-1.83656,10.89138-2.50225,16.364q-.70152,5.76725-1.09253,11.59622a163.19628,163.19628,0,0,0-.71548,18.36983c.24088,5.285.35644,10.58485,1.09044,15.8636.55552,3.99507,1.51645,7.91317,1.952,11.91945-1.10667-.88263-2.27281-1.701-3.3087-2.66-2.96-2.74047-6.02379-5.36808-9.05065-8.02773-5.44874-4.78765-10.80126-9.6781-15.95874-14.7658-7.73232-7.62779-15.51012-15.21432-22.87167-23.21378-2.02481-2.20025-3.96274-4.47458-5.9928-6.6675.89671-.021,1.79343-.06021,2.69014-.06046q21.09455-.00582,42.18905-.02006c.77676-.00132,1.65384.34118,2.33194-.37829a58.57006,58.57006,0,0,0,.01237-7.5237c.02732-.4479.07863-.89581.07861-1.34372q-.00318-55.94028-.01407-111.88052-.00795-15.50169-.01667-31.00343-.01439-17.2988-.037-34.5976c.01291-.3747.037-.74939.03706-1.12409q.00333-51.29933.01208-102.59869a7.91638,7.91638,0,0,0-.38319-2.649c.72914-.67531.38888-1.55657.3894-2.33572q.02958-44.64048.01362-89.281c-.00008-.67347-.04774-1.34694-.0732-2.02041.02895-1.42275.09336-2.84584.08-4.26821-.03554-3.7878.50015-3.327-3.35276-3.32752q-101.7427-.01359-203.48543-.01155c-.97077-.00007-1.94153-.07526-2.9123-.11538-.0405-2.38058-.10543-4.74557-.33959-7.132C263.06719,53.58519,263.072,49.61016,263,45.674c-.23923-13.08429-.08333-26.1758-.07894-39.26454.82156-.03678,1.64312-.10569,2.46468-.10575q94.38984-.00662,188.77968-.00408c.29926,0,.59854-.01917.89779-.02938a36.824,36.824,0,0,1,24.21832,10.4209,36.02391,36.02391,0,0,1,11.38164,26.73754q.04029,77.51382.014,155.02765c0,1.04977.0253,2.09956.03889,3.14964-.03513,1.96288-.76957,3.79513-1.06228,5.714-.53959,3.53727-1.01057,7.07372-1.37607,10.63865a131.28808,131.28808,0,0,0-.252,17.94593c.14014,4.07776.5951,8.16932,1.08868,12.2456.49281,4.06955,1.40843,8.08353,1.60031,12.18943-.01321.82419-.03782,1.64836-.03788,2.47253q-.003,39.80032.002,79.60069A6.70274,6.70274,0,0,0,490.838,344.64338ZM375.45333,40.52635c.20012-.102.4081-.19115.5991-.308,1.51012-.92393,1.983-1.99885,1.56572-3.54151a3.02394,3.02394,0,0,0-2.96391-1.96522c-.37285-.02412-.74844-.0068-1.12277-.0068q-21.78633-.00026-43.57267,0c-.37432,0-.75045-.02036-1.12267.00837-1.78673.13793-2.49317.78105-2.999,2.704-1.29875-.18992-1.599.68966-1.9474,1.676a2.50423,2.50423,0,0,0,.90578,2.78826c.91714.92492,2.12775.92829,3.34767.92712q21.63369-.02088,43.26741-.00956a6.82742,6.82742,0,0,0,1.342-.02775C374.03932,42.50921,375.22438,42.08034,375.45333,40.52635Z" transform="translate(-154.45002 -6.27025)"/><path class={classes.cls6} d="M540.10565,220.59171c-4.22385.83463-6.6234-1.70679-8.44045-4.864a47.9715,47.9715,0,0,1-4.98856-11.4908c-.78566-2.94522-1.50321-5.91565-2.08213-8.90755-1.23407-6.37788-.876-12.63163,2.103-18.52037,1.64772-3.25717,4.05149-5.73,7.93953-6.1813a1.01707,1.01707,0,0,0,1.02963-.96154,2.58781,2.58781,0,0,1,1.85133,2.51534c.43365,3.79377.65212,7.60038.84755,11.4118.45639,8.90179.687,17.8102.93789,26.71914C539.40007,213.74365,539.82842,217.16554,540.10565,220.59171Z" transform="translate(-154.45002 -6.27025)"/><path class={classes.cls3} d="M262.921,6.40946C262.91665,19.4982,262.76075,32.58971,263,45.674c.072,3.93616.06721,7.91119.45169,11.82958.23416,2.38643.29909,4.75142.33942,7.13236l.00352.20978q-16.1185-.03338-32.23716-.06667c-.07463-.00015-.14964.00714-.22381.00182-.96722-.0694-1.32662.40687-1.30453,1.34167.04933,2.08842.05381,4.1779.07657,6.26695-.01856.22408-.05333.44817-.05337.67224q-.00951,45.44451-.00731,90.889c.00008.57358-.18138,1.22241.43145,1.6473q.01356,43.21445.02093,86.4289c0,.6506.18523,1.36834-.448,1.87759-.81379-.69975-.36774-1.698-.58126-2.54352-2.2237-8.8061-4.11271-17.68983-6.03533-26.56475-1.008-4.65313-1.92216-9.328-2.79609-14.00845-.91394-4.89483-1.74137-9.806-2.5829-14.7141-.66582-3.88329-1.401-7.75888-1.91421-11.663-.60073-4.5697-1.42808-9.1056-1.97571-13.68511-.13029-1.08954.12139-2.4408-.858-3.37814-.61264-.80048-.35933-1.73386-.3621-2.61056q-.05133-16.19-.06591-32.38018.01794-10.91332.03422-21.82665c.00454-22.27771-.141-44.55666.05038-66.83272.13426-15.6249,7.58343-26.92722,21.48107-33.94251a32.44978,32.44978,0,0,1,14.31165-3.38805C253.476,6.30161,258.199,6.38911,262.921,6.40946Z" transform="translate(-154.45002 -6.27025)"/><path class={classes.cls1} d="M212.87779,132.35669q.02785,16.19012.06591,32.38018c.00277.8767-.25054,1.81008.36229,2.61223a35.69673,35.69673,0,0,0-.3572,6.49582q-.01191,17.76183-.04165,35.52366a348.59233,348.59233,0,0,1-42.00783-35.57776,82.74718,82.74718,0,0,1-10.07862-11.77324,32.82605,32.82605,0,0,1-5.81227-16.5595,25.43375,25.43375,0,0,1,1.98142-10.97514,32.29357,32.29357,0,0,1,5.63868-9.14754c5.98117-6.94983,13.554-9.27593,22.44794-7.60631a41.4202,41.4202,0,0,1,15.42124,6.528c3.49111,2.33193,6.94377,4.72138,10.43089,7.05938C211.53674,131.72424,212.05588,132.336,212.87779,132.35669Z" transform="translate(-154.45002 -6.27025)"/><path class={classes.cls1} d="M212.94262,308.32408c-.99012-.05109-1.63227.68623-2.4132,1.09142-7.10953,3.68849-14.505,4.75834-22.1519,2.06323a27.24358,27.24358,0,0,1-13.15915-10.15565,66.10555,66.10555,0,0,1-10.96652-23.973c-1.83171-8.1-1.20978-16.1079,3.43117-23.39811,4.77262-7.49705,10.89152-13.34634,19.63937-15.88948,7.38831-2.14789,13.90874-.57538,19.46107,4.82985a37.20261,37.20261,0,0,1,4.7265,5.7039c.41668.60895.67814,1.35378,1.39687,1.72035a18.01464,18.01464,0,0,0,.89728,2.04231,80.90356,80.90356,0,0,1,5.495,11.52858c2.98009,7.55507,4.99042,15.27283,4.54781,23.52477-.42438,7.91237-3.40208,14.44319-9.60381,19.44422C213.73106,307.2694,213.07984,307.57307,212.94262,308.32408Zm-39.54308-33.38423c-.43383,4.49688.97008,8.48053,2.54536,12.34574a26.5982,26.5982,0,0,0,5.20612,8.849c1.8533,1.90114,3.47,1.96713,5.40091.1336,1.46773-1.39372,2.855-2.87181,4.30417-4.28554a95.215,95.215,0,0,1,9.25283-8.48413c2.65848-1.98745,5.45542-3.921,7.38121-6.78483,1.27612-1.8977,1.32743-3.26821-.02285-5.12393a43.82956,43.82956,0,0,0-6.79252-7.15538c-3.73647-3.25316-7.93268-5.55377-13.20108-5.165a14.99587,14.99587,0,0,0-10.04772,4.85216C174.5888,267.1308,172.767,270.734,173.39954,274.93985Z" transform="translate(-154.45002 -6.27025)"/><path class={classes.cls4} d="M212.94262,308.32408c.13722-.751.78844-1.05468,1.30046-1.46759,6.20173-5.001,9.17943-11.53185,9.60381-19.44422.44261-8.25194-1.56772-15.9697-4.54781-23.52477a80.90356,80.90356,0,0,0-5.495-11.52858,18.01464,18.01464,0,0,1-.89728-2.04231q.00006-20.47326.00036-40.94788.02242-17.76206.0416-35.52381a35.69673,35.69673,0,0,1,.3572-6.49582c.97923.93567.72755,2.28693.85784,3.37647.54763,4.57951,1.375,9.11541,1.97571,13.68511.51323,3.90416,1.24839,7.77975,1.91421,11.663.84153,4.90809,1.669,9.81927,2.5829,14.7141.87393,4.68047,1.78806,9.35532,2.79609,14.00845,1.92262,8.87492,3.81163,17.75865,6.03533,26.56475.21352.84554-.23253,1.84377.58131,2.54344q.00424,42.30453.00841,84.60922c-.00342,5.50465.00677,11.00938-.02571,16.51386-.0046.77906.31759,1.64938-.38693,2.326a39.87123,39.87123,0,0,0-8.08746-13.59425c-2.82522-3.285-5.75762-6.47791-8.64264-9.71109Q212.92867,321.18669,212.94262,308.32408Z" transform="translate(-154.45002 -6.27025)"/><path class={classes.cls7} d="M229.64515,357.35351c.70452-.67659.38233-1.54691.38693-2.326.03248-5.50448.02229-11.00921.02566-16.51381a3.924,3.924,0,0,1,1.39273,1.41491,144.24763,144.24763,0,0,0,14.533,16.99306c2.0105,2.0004,4.09619,3.92285,6.1762,5.852,3.732,3.46121,7.75856,6.52324,11.79045,9.60025,3.14444,2.3997,6.576,4.37018,9.76328,6.701l.468.40343-.01662-.03077a3.10762,3.10762,0,0,0,.38724,1.723c1.29117,2.69706,2.50627,5.43193,3.85058,8.10188,2.08513,4.14125,4.15913,8.28715,6.32746,12.38871,3.03968,5.7497,6.11588,11.47564,9.284,17.15564,5.715,10.24609,11.89728,20.20466,18.28123,30.04152a5.768,5.768,0,0,1,1.0718,2.19424c-.89582.0209-1.79164.05994-2.68746.06011q-28.02419.00531-56.04832.01494c-.86886.00074-1.80485-.27546-2.59254.37041-4.35308-5.87492-9.83243-10.55361-15.67206-14.86811a52.9094,52.9094,0,0,1-6.31363-4.92037q-.0029-27.25455-.02224-54.50935c-.00111-.85546.33275-1.79751-.37081-2.56517a20.84783,20.84783,0,0,0,1.589-8.20646,19.11417,19.11417,0,0,0-1.26453-7.80584A2.44173,2.44173,0,0,1,229.64515,357.35351Z" transform="translate(-154.45002 -6.27025)"/><path class={classes.cls6} d="M196.16183,339.82117c2.316-.18316,4.98781.94131,7.58879,2.60074a77.3184,77.3184,0,0,1,12.56213,10.05384c1.99388,1.95551,2.193,3.62063.78118,6.05635a13.375,13.375,0,0,1-1.948,2.72217c-4.61923,4.675-9.01245,9.62753-14.94737,12.76115-3.14429,1.66021-6.35319,2.5877-9.76261.724a4.505,4.505,0,0,1-.9616-.56978,52.04367,52.04367,0,0,1-9.675-11.422,11.664,11.664,0,0,1-1.5119-6.87645,18.9443,18.9443,0,0,1,2.39891-8.29158C183.92424,341.87777,189.1114,339.87408,196.16183,339.82117Z" transform="translate(-154.45002 -6.27025)"/><path class={classes.cls3} d="M426.2316,459.17488c2.03006,2.19292,3.968,4.46725,5.9928,6.6675,7.36155,7.99946,15.13935,15.586,22.87167,23.21378,5.15748,5.0877,10.51,9.97815,15.95874,14.7658,3.02686,2.65965,6.09061,5.28726,9.05065,8.02773,1.03589.95906,2.202,1.7774,3.3087,2.66,1.06877,1.82323.28044,3.28228-.90726,4.67a37.81557,37.81557,0,0,1-20.37662,12.82362,32.73408,32.73408,0,0,1-7.545.97917q-34.87321-.03255-69.74641-.01516c-.59865-.00011-1.19727-.04621-1.796-.0711-1.01345-2.26762-3.04984-3.6158-4.78813-5.20952-.59538-.54587-1.272-1.03356-1.85234-1.61317-5.41208-5.40446-10.95918-10.684-16.16066-16.28447-2.27761-2.45229-4.7279-4.76957-6.80565-7.43373a2.84536,2.84536,0,0,1-.53593-2.82535c.27141-.10682.53678-.23462.81539-.31863,3.42531-1.03318,5.12352-3.948,4.5943-7.89773-.37134-2.77129-3.34245-5.07594-6.44961-5.18968-2.4214-.08868-4.04784,1.25186-5.65259,2.73822-.845-.07192-1.3256.6262-1.9757.95867a1.2919,1.2919,0,0,1-1.88887-.37692c-3.06095-3.55464-5.89875-7.2834-8.80711-10.95842-4.34245-5.4872-8.42537-11.16539-12.52074-16.83477a5.86549,5.86549,0,0,1-1.4271-2.48852c.59953-.01813,1.19884-.05189,1.79814-.05192q51.41163-.00371,102.82326.00069C424.88354,459.111,425.55758,459.15266,426.2316,459.17488Zm-54.83094,29.68958a4.8598,4.8598,0,0,0-2.94459,1.86157,6.22411,6.22411,0,0,0-.91279,7.09384,7.01123,7.01123,0,0,0,5.75718,4.07156,4.82732,4.82732,0,0,0,4.77518-2.37256c.348-.11335.69556-.22775,1.04394-.33978,3.16929-1.01906,4.89562-4.0115,4.39915-7.6262a6.6987,6.6987,0,0,0-6.24212-5.42841C374.77294,485.98031,373.05724,487.30645,371.40066,488.86446Z" transform="translate(-154.45002 -6.27025)"/><path class={classes.cls8} d="M426.2316,459.17488c-.674-.02222-1.34806-.06387-2.02207-.06392q-51.41163-.00483-102.82326-.00069c-.5993,0-1.19861.03379-1.79814.05192-1.04827-.02437-2.09631-.06967-3.14437-.07011q-30.34776-.013-60.69538-.01725a53.9826,53.9826,0,0,0-3.70917-7.57672c.78731-.64595,1.7233-.36975,2.59216-.37049q28.02416-.02423,56.04832-.01494c.89582-.00017,1.79164-.03921,2.68674-.06025q.41909.13323.83962.26667c.81981,1.951,2.306,3.48327,3.344,5.27548,1.01831,1.75831,2.29209,2.14165,4.194,2.13863q50.25846-.08047,100.51715-.04184c.89836-.00008,1.79672-.04494,2.69509-.06893,1.12145.02962,2.24293.08445,3.36438.085q22.56081.01125,45.12164.00912c-.67767.719-1.55475.37648-2.33151.3778q-21.0945.03566-42.18905.02006C428.025,459.11467,427.12831,459.15387,426.2316,459.17488Z" transform="translate(-154.45002 -6.27025)"/><path class={classes.cls1} d="M320.01086,492.75321a6.59708,6.59708,0,0,1,6.70876-6.64389,6.67411,6.67411,0,0,1,6.59847,6.81092c-.13961,4.01607-2.9987,6.662-7.269,6.64143C322.77886,499.5459,319.99266,496.39021,320.01086,492.75321Z" transform="translate(-154.45002 -6.27025)"/><path class={classes.cls1} d="M346.20764,488.86215c1.60476-1.48636,3.2312-2.8269,5.6526-2.73822,3.10716.11374,6.07827,2.41839,6.44961,5.18968.52922,3.94969-1.169,6.86455-4.5943,7.89773-.27861.084-.544.21181-.81539.31863a6.75171,6.75171,0,0,1-6.80127-3.24338,6.63892,6.63892,0,0,1-.45944-5.982C345.80555,489.81588,346.017,489.34253,346.20764,488.86215Z" transform="translate(-154.45002 -6.27025)"/><path class={classes.cls6} d="M210.64794,460.82237a15.14993,15.14993,0,0,1,4.37087-11.21537,12.96468,12.96468,0,0,1,6.955-4.21032,6.11016,6.11016,0,0,1,3.29938.08915c6.28947,2.2107,12.40317,4.83394,17.68972,8.94654,4.04864,3.14959,4.39409,4.98754,3.16,9.32646a12.39187,12.39187,0,0,1-1.34843,2.83154c-2.17607,3.67634-4.54342,7.19856-8.17589,9.648a8.61431,8.61431,0,0,1-9.482.57565A57.11858,57.11858,0,0,1,212.259,465.43016,5.37674,5.37674,0,0,1,210.64794,460.82237Z" transform="translate(-154.45002 -6.27025)"/><path class={classes.cls9} d="M273.71344,379.07491c-3.18729-2.3308-6.61884-4.30128-9.76328-6.701-4.03189-3.077-8.05848-6.139-11.79045-9.60025-2.08-1.92913-4.1657-3.85158-6.1762-5.852a144.24763,144.24763,0,0,1-14.533-16.99306,3.924,3.924,0,0,0-1.39273-1.41491q-.00411-42.30472-.00836-84.60927c.63323-.50917.448-1.22691.448-1.87751q-.00282-43.21446-.0208-86.42835a3.6143,3.6143,0,0,1,.34779-.81333,164.472,164.472,0,0,1,17.8604-20.354,161.15633,161.15633,0,0,1,14.91443-12.54618c2.4591-1.81509,4.97944-3.54718,7.472-5.31689,2.71181-1.59285,5.38374-3.25869,8.14205-4.76644a148.74166,148.74166,0,0,1,47.66857-16.63727,168.41083,168.41083,0,0,1,22.093-2.0154c3.66251-.11082,7.33026.13258,10.99481.25074a129.62848,129.62848,0,0,1,18.70768,2.12547,141.91212,141.91212,0,0,1,27.57026,7.89639A149.58534,149.58534,0,0,1,439.053,131.42419a144.961,144.961,0,0,1,24.53946,22.369,113.98443,113.98443,0,0,1,9.53943,12.20217,7.91638,7.91638,0,0,1,.38319,2.649q-.01677,51.29934-.01208,102.59869c0,.3747-.02415.74939-.03648,1.124a2.01994,2.01994,0,0,1-1.34473-.72871c-2.46426-2.39989-4.91036-4.81042-7.477-7.1124-4.56674-4.096-8.61736-8.733-13.24772-12.78934-4.275-3.745-8.04149-8.03347-12.27083-11.85808-4.93659-4.46414-9.45576-9.38306-14.38812-13.87213-4.31674-3.92876-8.2253-8.27644-12.57327-12.19517-4.888-4.40547-9.3256-9.30181-14.22629-13.71625-2.50356-2.25516-4.84671-4.69768-7.15911-7.15282-1.59934-1.69806-3.51844-3.01791-5.15088-4.66323a1.98287,1.98287,0,0,0-1.64563-.54043c-.423-1.63366-1.97785-1.42489-3.09089-1.763q-6.20755-1.88591-12.4933-3.51052a3.76787,3.76787,0,0,1-2.68755-2.41144c-1.84832-4.24992-3.74908-8.47724-5.65414-12.7022-.89367-1.9819-.93767-2.02387-2.98522-1.3029-3.80476,1.33973-7.61763,2.66691-11.36412,4.15774a6.59842,6.59842,0,0,1-6.71828-.53605c-3.73816-2.46359-7.7425-4.52135-11.61188-6.78905-.765-.44835-1.23162-.31306-1.64989.40906-.22422.38711-.50669.74023-.75851,1.11164q-3.89758,5.74838-7.79606,11.49618a3.27246,3.27246,0,0,1-2.231,1.60475c-1.49134.30247-2.97975.19784-4.45229.431a44.787,44.787,0,0,1-7.31856.79362,28.56916,28.56916,0,0,0-3.774.38131c-1.27869.16061-1.459.79031-1.36852,1.79827a39.43767,39.43767,0,0,1,.43774,4.44857c-.07134,3.22089-.10173,6.44889.03888,9.66575a4.71411,4.71411,0,0,1-1.72046,4.11125c-3.36942,2.95553-6.67627,5.98372-9.96434,9.03013-1.62972,1.51-1.62286,1.58542-.334,3.2504,2.832,3.65861,5.65159,7.32948,8.59319,10.89893a3.475,3.475,0,0,1,.88328,3.42906c-1.04431,4.2679-1.90973,8.57991-2.82585,12.87877-.64219,3.01341-.62817,3.01641,2.16946,4.02967a2.122,2.122,0,0,0,.68092,1.80866c4.39347,4.24406,8.30294,8.94075,12.4857,13.38219a27.52429,27.52429,0,0,1,2.971,3.3261,3.10182,3.10182,0,0,0,2.22768,1.71361c.36643,7.9243-.04246,15.85266.42381,23.79094.526,8.95588.06073,17.95047.46805,26.93443.3697,8.15391.09748,16.33689.11448,24.507.00231,1.11062-.15953,2.278.87636,3.101a1.71534,1.71534,0,0,0,.52578,1.19834c1.6303,1.63936,3.09594,3.44489,4.705,5.08559,7.52986,7.67806,15.01392,15.39681,22.32359,23.286,3.399,3.66848,6.97211,7.175,10.44267,10.77438,5.23573,5.43014,10.30207,11.0285,15.701,16.30244.524.51186,1.18569.95375,1.215,1.80822-1.87049.73791-3.85137.3761-5.77461.58464-4.30721.467-8.62408.71458-12.95664.80513-2.70214.05648-5.3683-.34046-8.05507-.40618a102.5886,102.5886,0,0,1-10.922-.89125,149.61978,149.61978,0,0,1-26.60217-5.90915,143.74793,143.74793,0,0,1-27.45643-12.00468c-1.4746-.847-2.82768-1.97685-4.53612-2.39929l.01659.03074A.53855.53855,0,0,0,273.71344,379.07491Z" transform="translate(-154.45002 -6.27025)"/><path class={classes.cls10} d="M383.983,187.73843a1.98287,1.98287,0,0,1,1.64563.54043c1.63244,1.64532,3.55154,2.96517,5.15088,4.66323,2.3124,2.45514,4.65555,4.89766,7.15911,7.15282,4.90069,4.41444,9.33829,9.31078,14.22629,13.71625,4.348,3.91873,8.25653,8.26641,12.57327,12.19517,4.93236,4.48907,9.45153,9.408,14.38812,13.87213,4.22934,3.82461,7.99587,8.11308,12.27083,11.85808,4.63036,4.05634,8.681,8.69338,13.24772,12.78934,2.5666,2.302,5.0127,4.71251,7.477,7.1124a2.01994,2.01994,0,0,0,1.3447.72871q.018,17.299.03645,34.59771.01293,15.50171.01667,31.00412a54.92913,54.92913,0,0,0-4.15792,5.26869,149.5886,149.5886,0,0,1-46.52136,39.60218,146.21355,146.21355,0,0,1-33.716,13.30773c-3.53289.90884-7.09814,1.69191-10.64855,2.53262l-8.00792.98793c-.02936-.85417-.69105-1.29606-1.21505-1.80792-5.39894-5.27394-10.46528-10.8723-15.701-16.30244-3.47056-3.59942-7.04366-7.1059-10.44267-10.77438-7.30967-7.88914-14.79373-15.60789-22.32359-23.286-1.60907-1.6407-3.07471-3.44623-4.705-5.08559a1.71516,1.71516,0,0,1-.52575-1.19828,8.64464,8.64464,0,0,1,1.63352-1.82565c3.21632-3.41587,6.97929-6.26791,10.09593-9.787,3.94208-3.85873,7.88416-7.71749,11.90609-11.65437,4.0621,3.391,7.62784,7.19809,11.45661,10.71974,1.35853,1.26919,2.73741,2.51745,4.07083,3.81252,1.988,1.93091,3.948,3.8907,5.91131,5.8469a5.58862,5.58862,0,0,0,2.5886,1.69449c.414-17.27614-.896-34.42365-.098-51.66177,4.18571,4.83128,8.145,9.75656,12.12928,14.66149,4.04527,4.97993,8.12891,9.92865,12.17053,14.91152,3.96025,4.88254,7.81354,9.85447,12.04623,14.708a4.90941,4.90941,0,0,0,.69528-1.98957c.22531-1.84639.54434-3.68118.77715-5.52677.36317-2.87912.68549-5.76341,1.02515-8.64561q.48072-3.55249.96058-7.1048c.37508-2.80854.69738-5.62517,1.133-8.42421.2555-1.64163.4005-1.66427,2.056-1.45768,4.29674.53624,8.59868,1.02357,12.92207,1.29524a2.23716,2.23716,0,0,0,1.70422.36964,25.05554,25.05554,0,0,1,3.819.05676c3.46128.56463,6.98626.54277,10.43293,1.21861a2.32953,2.32953,0,0,0,1.93945-.23373,2.78509,2.78509,0,0,0-.2705-.67755q-5.08517-6.26434-10.19028-12.51239c-4.30908-5.25861-8.73712-10.42345-12.92554-15.77615-4.6965-6.002-9.58593-11.84451-14.3534-17.78707q-9.67677-12.062-19.51121-23.9969c-.73742-.8983-.54267-1.39559.1924-2.02912,1.24566-1.07358,2.47148-2.17046,3.69609-3.26822,2.2278-1.997,4.405-4.05381,6.69449-5.97712.87815-.73771,1.12757-1.31165.35353-2.21249-.38864-.45232-.69805-.97173-1.06586-1.44316q-4.0674-5.21331-8.14619-10.41773a2.77922,2.77922,0,0,1-.90814-2.41008Q382.255,195.71722,383.983,187.73843Z" transform="translate(-154.45002 -6.27025)"/><path class={classes.cls6} d="M473.13192,165.99534a113.98443,113.98443,0,0,0-9.53943-12.20217,144.961,144.961,0,0,0-24.53946-22.369,149.58534,149.58534,0,0,0-32.80544-18.00253,141.91212,141.91212,0,0,0-27.57026-7.89639,129.62848,129.62848,0,0,0-18.70768-2.12547c-3.66455-.11816-7.3323-.36156-10.99481-.25074a168.41083,168.41083,0,0,0-22.093,2.0154,148.74166,148.74166,0,0,0-47.66857,16.63727c-2.75831,1.50775-5.43024,3.17359-8.14228,4.76618-.734-.10337-.92118-.56968-.97707-1.25643q-.18954-2.3293-.52465-4.64632c-.54844-3.81473-1.21918-7.61382-1.68217-11.4384-.5528-4.56636-.81691-9.17033-1.46529-13.72106-.23291-1.63465-.11205-3.29174-.46229-4.8759a72.58864,72.58864,0,0,1-.74708-7.30556c-.42508-3.60713-.43023-7.26238-.97576-10.86656q.03-.1684.05-.33829c19.938.234,39.87773.11145,59.81644.20668,48.8859.23347,97.77368.07653,146.66069.07445.89932,0,1.79862-.02757,2.69794-.04228.02546.67347.07312,1.34694.0732,2.02041q.00545,44.64048-.01362,89.281C473.5208,164.43877,473.86106,165.32,473.13192,165.99534Z" transform="translate(-154.45002 -6.27025)"/><path class={classes.cls6} d="M378.47579,398.68c3.55041-.84071,7.11566-1.62378,10.64855-2.53262a148.13358,148.13358,0,0,0,58.496-30.26451,148.59366,148.59366,0,0,0,21.74137-22.6454,54.92913,54.92913,0,0,1,4.15792-5.26869q.00874,55.93924.01407,111.87983c0,.44791-.05129.89582-.07851,1.34284q-26.29378-.02088-52.58788-.032a9.59506,9.59506,0,0,0-1.32545.18335q-.4593-.1287-.91792-.25434c-2.04772-3.2258-4.873-5.81341-7.22357-8.79421-2.3965-3.039-5.01353-5.90357-7.4276-8.92943-2.96993-3.72263-5.77925-7.57342-8.74822-11.29685-5.43651-6.81815-10.50253-13.90693-15.50832-21.04022A4.724,4.724,0,0,1,378.47579,398.68Z" transform="translate(-154.45002 -6.27025)"/><path class={classes.cls11} d="M473.46174,72.35824c-.89932.01471-1.79862.04225-2.69794.04228-48.887.00208-97.77479.159-146.66069-.07445-19.93871-.09523-39.87841.02732-59.81666-.207-.1222-2.4275.19312-4.88428-.49192-7.2734l-.00344-.20975c.97094.03976,1.9417.11495,2.91247.115q101.74271.00825,203.48543.01155c3.85291.00051,3.31722-.46028,3.35276,3.32752C473.5551,69.5124,473.49069,70.93549,473.46174,72.35824Z" transform="translate(-154.45002 -6.27025)"/><path class={classes.cls11} d="M419.54217,451.34438a9.36478,9.36478,0,0,1,1.32515-.18486q26.294.00531,52.58788.032a58.60162,58.60162,0,0,1-.01247,7.52458q-22.56147-.00189-45.12207-.00863c-1.12145-.00055-2.24293-.05538-3.36477-.08434a2.81271,2.81271,0,0,0-1.22505-2.23206A26.35252,26.35252,0,0,1,419.54217,451.34438Z" transform="translate(-154.45002 -6.27025)"/><path class={classes.cls1} d="M325.83713,37.41724c.50583-1.923,1.21227-2.5661,2.999-2.704.37222-.02873.74835-.00837,1.12267-.00837q21.78633-.00034,43.57267,0c.37433,0,.74992-.01732,1.12277.0068a3.02394,3.02394,0,0,1,2.96391,1.96522c.41726,1.54266-.0556,2.61758-1.56572,3.54151-.191.11688-.399.206-.59956.30816q-17.75541-.00556-35.50987-.0113c-3.521-.00106-7.04219.02269-10.56289-.00934C326.97984,40.484,326.22406,39.78864,325.83713,37.41724Z" transform="translate(-154.45002 -6.27025)"/><path class={classes.cls4} d="M325.83713,37.41724c.38693,2.3714,1.14271,3.06677,3.543,3.0886,3.5207.032,7.04191.00828,10.56289.00934q17.75471.00535,35.50987.0113c-.22849,1.55386-1.41355,1.98273-2.70023,2.24486a6.82742,6.82742,0,0,1-1.342.02775q-21.63371.00114-43.26741.00956c-1.21992.00117-2.43053-.0022-3.34767-.92712a2.50423,2.50423,0,0,1-.90578-2.78826C324.23817,38.1069,324.53838,37.22732,325.83713,37.41724Z" transform="translate(-154.45002 -6.27025)"/><path class={classes.cls1} d="M264.23668,72.45768c.54553,3.60418.55068,7.25943.97576,10.86656a72.58864,72.58864,0,0,0,.74708,7.30556c.35024,1.58416.22938,3.24125.46229,4.8759.64838,4.55073.91249,9.1547,1.46529,13.72106.463,3.82458,1.13373,7.62367,1.68217,11.4384q.33261,2.31356.52465,4.64632c.05589.68675.2431,1.15306.97707,1.25642-2.49235,1.77-5.01269,3.50207-7.47179,5.31716a161.15633,161.15633,0,0,0-14.91443,12.54618,164.472,164.472,0,0,0-17.8604,20.354,3.6143,3.6143,0,0,0-.34779.81333c-.613-.42544-.4315-1.07427-.43158-1.64785q-.00559-45.4445.00731-90.889c0-.22407.03481-.44816.05314-.67138,1.27208.01,2.54438.02551,3.81669.02737Q249.0794,72.43989,264.23668,72.45768Z" transform="translate(-154.45002 -6.27025)"/><path class={classes.cls12} d="M264.23668,72.45768q-15.15727-.01949-30.31454-.04c-1.27231-.00186-2.54461-.01735-3.81669-.02737-.02253-2.08991-.027-4.17939-.07634-6.26781-.02209-.9348.33731-1.41107,1.30453-1.34167.07417.00532.14918-.002.22381-.00182q16.11863.03321,32.23716.06667c.685,2.38909.36964,4.84587.49184,7.27337Q264.26676,72.28943,264.23668,72.45768Z" transform="translate(-154.45002 -6.27025)"/><path class={classes.cls6} d="M173.39954,274.93985c-.63253-4.20587,1.18926-7.809,4.02643-10.81828a14.99587,14.99587,0,0,1,10.04772-4.85216c5.2684-.38876,9.46461,1.91185,13.20108,5.165a43.82956,43.82956,0,0,1,6.79252,7.15538c1.35028,1.85572,1.299,3.22623.02285,5.12393-1.92579,2.86388-4.72273,4.79738-7.38121,6.78483a95.215,95.215,0,0,0-9.25283,8.48413c-1.4492,1.41373-2.83644,2.89182-4.30417,4.28554-1.93087,1.83353-3.54761,1.76754-5.40091-.1336a26.5982,26.5982,0,0,1-5.20612-8.849C174.36962,283.42038,172.96571,279.43673,173.39954,274.93985Z" transform="translate(-154.45002 -6.27025)"/><path class={classes.cls1} d="M378.47579,398.68a4.724,4.724,0,0,0,1.24045,2.34778c5.00579,7.13329,10.07181,14.22207,15.50832,21.04022,2.969,3.72343,5.77829,7.57422,8.74822,11.29685,2.41407,3.02586,5.0311,5.89039,7.4276,8.92943,2.35054,2.9808,5.17585,5.56841,7.22338,8.79388-.97291.01519-1.94568.04423-2.91842.04431q-49.30117.00351-98.60234.00887a8.68728,8.68728,0,0,0-2.897.17772q-.42018-.13338-.83962-.26667a5.75642,5.75642,0,0,0-1.07108-2.1941c-6.38395-9.83686-12.56621-19.79543-18.28123-30.04152-3.16817-5.68-6.24437-11.40594-9.284-17.15564-2.16833-4.10156-4.24233-8.24746-6.32746-12.38871-1.34431-2.67-2.55941-5.40482-3.85058-8.10188a3.10762,3.10762,0,0,1-.38724-1.723c1.70847.42236,3.06155,1.55221,4.53615,2.39921a143.74793,143.74793,0,0,0,27.45643,12.00468,149.61978,149.61978,0,0,0,26.60217,5.90915,102.5886,102.5886,0,0,0,10.922.89125c2.68677.06572,5.35293.46266,8.05507.40618,4.33256-.09055,8.64943-.3381,12.95664-.80513,1.92324-.20854,3.90412.15327,5.77461-.58464Q374.47186,399.17386,378.47579,398.68Z" transform="translate(-154.45002 -6.27025)"/><path class={classes.cls1} d="M273.71344,379.07491a.53855.53855,0,0,1,.468.40332Q273.94741,379.27668,273.71344,379.07491Z" transform="translate(-154.45002 -6.27025)"/><path class={classes.cls1} d="M371.40066,488.86446c1.65658-1.558,3.37228-2.88415,5.87595-2.74a6.6987,6.6987,0,0,1,6.24212,5.42841c.49647,3.6147-1.22986,6.60714-4.39915,7.6262-.34838.112-.696.22643-1.04387.34044a6.03447,6.03447,0,0,0-.66685.04692c-3.46506.62741-7.44334-3.397-7.05589-6.87313A20.08354,20.08354,0,0,1,371.40066,488.86446Z" transform="translate(-154.45002 -6.27025)"/><path class={classes.cls4} d="M371.40066,488.86446a20.08354,20.08354,0,0,0-1.04769,3.82886c-.38745,3.47613,3.59083,7.50054,7.05589,6.87313a6.03447,6.03447,0,0,1,.66685-.04692,4.82816,4.82816,0,0,1-4.77525,2.3719,7.01123,7.01123,0,0,1-5.75718-4.07156,6.22411,6.22411,0,0,1,.91279-7.09384A4.8598,4.8598,0,0,1,371.40066,488.86446Z" transform="translate(-154.45002 -6.27025)"/><path class={classes.cls12} d="M314.20605,451.3191a8.68728,8.68728,0,0,1,2.897-.17772q49.30116-.01252,98.60234-.00887c.97274-.00008,1.94551-.02912,2.91842-.04431q.45909.12692.91811.25467a26.32829,26.32829,0,0,0,4.189,5.04817,2.81271,2.81271,0,0,1,1.22505,2.23206c-.898.02333-1.79634.06819-2.6947.06827q-50.25861.0054-100.51715.04184c-1.90194.003-3.17572-.38032-4.194-2.13863C316.51208,454.80237,315.02586,453.2701,314.20605,451.3191Z" transform="translate(-154.45002 -6.27025)"/><path class={classes.cls13} d="M383.983,187.73843q-1.7407,7.976-3.4871,15.95078a2.77922,2.77922,0,0,0,.90814,2.41008q4.07906,5.20422,8.14619,10.41773c.36781.47143.67722.99084,1.06586,1.44316.774.90084.52462,1.47478-.35353,2.21249-2.28946,1.92331-4.46669,3.98009-6.69449,5.97712-1.22461,1.09776-2.45043,2.19464-3.69609,3.26822-.73507.63353-.92982,1.13082-.1924,2.02912q9.81186,11.95238,19.51121,23.9969c4.76747,5.94256,9.6569,11.78509,14.3534,17.78707,4.18842,5.3527,8.61646,10.51754,12.92554,15.77615q5.114,6.24081,10.19028,12.51239a2.78509,2.78509,0,0,1,.2705.67755,2.32953,2.32953,0,0,1-1.93945.23373c-3.44667-.67584-6.97165-.654-10.43293-1.21861a25.05554,25.05554,0,0,0-3.819-.05676,2.23639,2.23639,0,0,1-1.70436-.37c.35757-.06739.7153-.13442,1.39936-.26263-12.40261-15.21306-24.65976-30.24762-36.91688-45.28218a48.74945,48.74945,0,0,1-3.48065-4.36425,2.91792,2.91792,0,0,0-3.43011-1.36683,58.20027,58.20027,0,0,1-6.63657.81466c-2.89044.19319-5.76672.59552-8.65045.89472a1.97268,1.97268,0,0,0-1.43761.96609c-1.40406,2.019-2.80934,4.03747-4.17787,6.0805-.31938.47681-.69782,1.03617-.12747,1.62081,1.77047,1.81479,2.97042,4.11815,4.936,5.76574a11.5071,11.5071,0,0,0,1.40668,2.02023q2.395,2.81573,4.71664,5.69382,7.40505,9.13735,14.78944,18.29143,5.41941,6.70833,10.83369,13.42085c2.67613,3.31057,5.34909,6.62384,8.051,9.91331a4.35543,4.35543,0,0,0,1.65335,1.48562c-.33966,2.88209-.662,5.76638-1.02515,8.6455-.23281,1.84559-.55184,3.68038-.77715,5.52677a4.90941,4.90941,0,0,1-.69528,1.98957c-4.23269-4.85353-8.086-9.82546-12.04623-14.708-4.04162-4.98287-8.12526-9.93159-12.17053-14.91152-3.98432-4.90493-7.94357-9.83021-12.12928-14.66149-.798,17.23812.512,34.38563.098,51.66177a5.58862,5.58862,0,0,1-2.5886-1.69449c-1.96328-1.9562-3.92334-3.916-5.91131-5.8469-1.33342-1.29507-2.7123-2.54333-4.07089-3.8128.84-.70906.47013-1.674.47228-2.521.027-10.59325-.05243-21.18472-.43113-31.7737-.16007-4.475-.1142-8.95742-.16194-13.43647.48627-2.77269-.40184-5.49072-.33107-8.24792.01465-.571-.41652-.93134-.74434-1.338-1.77584-2.20339-3.4605-4.48724-5.33972-6.598-1.42282-1.5982-2.47451-3.572-4.51475-4.59719-1.33049-.66854-2.58961-1.47974-3.87679-2.23369a2.83239,2.83239,0,0,0-2.57726-.19934c-1.60361.60681-3.23218,1.14774-4.83422,1.75845-2.92513,1.11507-2.92022,1.12793-2.7591,4.34526-.13173,2.916.16056,5.81737.2585,8.72385.30735,9.12025.04572,18.24822.44767,27.37786.35226,8.00068.08492,16.02769.1505,24.04257a14.20881,14.20881,0,0,0,.87873,5.63228c-3.11664,3.51906-6.87961,6.3711-10.09593,9.787a8.64464,8.64464,0,0,0-1.63352,1.82565c-1.03592-.82307-.87408-1.99045-.87639-3.10107-.017-8.17015.25522-16.35313-.11448-24.507-.40732-8.984.058-17.97855-.46805-26.93443-.46627-7.93828-.05738-15.86664-.42291-23.79069a56.68626,56.68626,0,0,1-.34632-8.26078,3.76182,3.76182,0,0,0-.42324-1.49666c-.74493-1.63021-1.53878-3.24151-2.19935-4.90554a2.79026,2.79026,0,0,0-2.06651-1.8238c-.723-.181-1.436-.40217-2.15388-.6039q-5.58832-1.57046-11.17691-3.14013c-2.79763-1.01326-2.81165-1.01626-2.16946-4.02967.91612-4.29886,1.78154-8.61087,2.82585-12.87877a3.475,3.475,0,0,0-.88328-3.42906c-2.9416-3.56945-5.76121-7.24032-8.59319-10.89893-1.28882-1.665-1.29568-1.74045.334-3.2504,3.28807-3.04641,6.59492-6.0746,9.96434-9.03013a4.71411,4.71411,0,0,0,1.72046-4.11125c-.14061-3.21686-.11022-6.44486-.03888-9.66575a39.43767,39.43767,0,0,0-.43774-4.44857c-.09047-1.008.08983-1.63766,1.36852-1.79827a28.56916,28.56916,0,0,1,3.774-.38131,44.787,44.787,0,0,0,7.31856-.79362c1.47254-.2332,2.961-.12857,4.45229-.431a3.27246,3.27246,0,0,0,2.231-1.60475q3.90469-5.74357,7.79606-11.49618c.25182-.37141.53429-.72453.75851-1.11164.41827-.72212.88488-.85741,1.64989-.40906,3.86938,2.2677,7.87372,4.32546,11.61188,6.78905a6.59842,6.59842,0,0,0,6.71828.53605c3.74649-1.49083,7.55936-2.818,11.36412-4.15774,2.04755-.721,2.09155-.679,2.98522,1.3029,1.90506,4.225,3.80582,8.45228,5.65414,12.7022a3.76787,3.76787,0,0,0,2.68755,2.41144q6.27846,1.63607,12.4933,3.51052C382.00516,186.31354,383.56,186.10477,383.983,187.73843Zm-79.74461,45.956c-.15449,1.13332.632,1.46021,1.45442,1.7086,3.00438.90742,5.99872,1.85555,9.03043,2.662a4.50347,4.50347,0,0,1,3.38111,2.85522c1.10648,2.7775,2.36657,5.49608,3.629,8.2083.90585,1.9462,1.01774,1.9885,3.09356,1.26686q4.23687-1.47286,8.42621-3.08129a3.90628,3.90628,0,0,1,3.80054.18456c2.60507,1.61531,5.32848,3.0383,7.97016,4.59641,2.09325,1.23464,2.39788,1.21889,3.77174-.80568,1.72258-2.53849,3.48673-5.054,5.0798-7.67262a3.45067,3.45067,0,0,1,2.68124-1.76317q4.88718-.58442,9.796-.98285c2.14143-.17079,2.58568-.43868,2.225-2.57393-.51712-3.06161-.19147-6.13063-.403-9.18638a3.7448,3.7448,0,0,1,1.34671-3.35847c2.41474-2.12569,4.72166-4.37339,7.11126-6.5284,1.57415-1.41965,1.60628-1.38749.29016-3.11-.18164-.23773-.40521-.4433-.58792-.68031-1.87082-2.42636-3.71514-4.87365-5.61765-7.27485a2.7571,2.7571,0,0,1-.61531-2.49426c.72406-3.20033,1.4075-6.40985,2.12844-9.61091.50654-2.2491.53157-2.27595-1.81772-2.97644-3.00493-.896-6.01834-1.76615-9.04445-2.58712a3.60857,3.60857,0,0,1-2.59386-2.22626c-1.25408-2.96246-2.60473-5.88394-3.909-8.82525-.82162-1.85284-.85563-1.90375-2.82511-1.21389-3.03381,1.06274-6.06176,2.14548-9.06406,3.29334a3.61318,3.61318,0,0,1-3.41243-.25467c-2.88729-1.73029-5.81387-3.39507-8.72745-5.08134-1.38021-.79884-1.4261-.824-2.30181.43182-1.96785,2.822-3.88658,5.67823-5.82983,8.51745a3.02784,3.02784,0,0,1-2.22855,1.69258c-3.34418.2854-6.6832.63252-10.02862.90115-1.94209.156-2.11268.265-2.11571,2.31024-.00466,3.14909-.10287,6.30608.08787,9.44456a4.83829,4.83829,0,0,1-2.11753,4.3647c-2.19312,1.80221-4.30583,3.707-6.38712,5.63892-1.32683,1.23159-1.32482,1.61134-.23349,3.02423,1.32465,1.71493,2.78363,3.33064,4.04309,5.09052,3.08731,4.314,3.57857,3.08295,2.01016,8.8683-.11727.43253-.19967.87484-.28974,1.31437Q304.83912,230.737,304.2384,233.69447Z" transform="translate(-154.45002 -6.27025)"/><path class={classes.cls10} d="M295.30675,242.64937q5.58847,1.57,11.17691,3.14013c.71788.20173,1.43084.42294,2.15388.6039a2.79026,2.79026,0,0,1,2.06651,1.8238c.66057,1.664,1.45442,3.27533,2.19935,4.90554a3.76182,3.76182,0,0,1,.42324,1.49666,56.68626,56.68626,0,0,0,.34632,8.26078,3.10255,3.10255,0,0,1-2.22858-1.71386,27.52429,27.52429,0,0,0-2.971-3.3261c-4.18276-4.44144-8.09223-9.13813-12.4857-13.38219A2.122,2.122,0,0,1,295.30675,242.64937Z" transform="translate(-154.45002 -6.27025)"/><path class={classes.cls2} d="M383.51728,255.24077c12.25712,15.03456,24.51427,30.06912,36.91688,45.28218-.68406.12821-1.04179.19524-1.39936.26263-4.32325-.27134-8.62519-.75867-12.92193-1.29491-1.65546-.20659-1.80046-.184-2.056,1.45768-.43563,2.799-.75793,5.61567-1.133,8.42421q-.47456,3.55312-.96058,7.1048a4.35426,4.35426,0,0,1-1.65335-1.48551c-2.70187-3.28947-5.37483-6.60274-8.051-9.91331q-5.42137-6.7068-10.83369-13.42085-7.391-9.1488-14.78944-18.29143-2.32756-2.872-4.71664-5.69382a11.47011,11.47011,0,0,1-1.40627-2.02067c.03351-.29739-.032-.66.11512-.88106,1.31829-1.98056,2.67321-3.9367,4.01977-5.89838a.83375.83375,0,0,1,.73792-.43346c1.06934.08857,2.03918-.45665,3.08-.47555,3.79469-.069,7.50773-.9921,11.32231-.99771C381.1032,256.96369,382.82069,256.9744,383.51728,255.24077Z" transform="translate(-154.45002 -6.27025)"/><path class={classes.cls2} d="M327.28424,329.60079a14.20881,14.20881,0,0,1-.87873-5.63228c-.06558-8.01488.20176-16.04189-.1505-24.04257-.40195-9.12964-.14032-18.25761-.44767-27.37786-.09794-2.90648-.39023-5.80788-.25931-8.724a50.75728,50.75728,0,0,0,5.95445-1.92683c1.85549-.63507,1.91287-.48626,3.20125.9178,1.97045,2.14739,3.807,4.40169,5.64628,6.65628,2.44945,3.00256,4.86173,6.03586,7.34062,9.01377.799.9598,1.5153,2.06993,2.83546,2.44962.04774,4.47905.00187,8.96143.16194,13.43647.3787,10.589.45816,21.18045.43113,31.7737-.00215.84695.36769,1.81191-.47228,2.521-3.82871-3.52137-7.39445-7.32848-11.45655-10.71946C335.1684,321.8833,331.22632,325.74206,327.28424,329.60079Z" transform="translate(-154.45002 -6.27025)"/><path class={classes.cls2} d="M304.2384,233.69447q.60282-2.95705,1.20651-5.91391c.09007-.43953.17247-.88184.28974-1.31437,1.56841-5.78535,1.07715-4.55429-2.01016-8.8683-1.25946-1.75988-2.71844-3.37559-4.04309-5.09052-1.09133-1.41289-1.09334-1.79264.23349-3.02423,2.08129-1.93189,4.194-3.83671,6.38712-5.63892a4.83829,4.83829,0,0,0,2.11753-4.3647c-.19074-3.13848-.09253-6.29547-.08787-9.44456.003-2.04527.17362-2.15428,2.11571-2.31024,3.34542-.26863,6.68444-.61575,10.02862-.90115a3.02784,3.02784,0,0,0,2.22855-1.69258c1.94325-2.83922,3.862-5.69544,5.82983-8.51745.87571-1.25583.9216-1.23066,2.30181-.43182,2.91358,1.68627,5.84016,3.351,8.72745,5.08134a3.61318,3.61318,0,0,0,3.41243.25467c3.0023-1.14786,6.03025-2.2306,9.06406-3.29334,1.96948-.68986,2.00349-.63895,2.82511,1.21389,1.30427,2.94131,2.65492,5.86279,3.909,8.82525a3.60857,3.60857,0,0,0,2.59386,2.22626c3.02611.821,6.03952,1.69114,9.04445,2.58712,2.34929.70049,2.32426.72734,1.81772,2.97644-.72094,3.20106-1.40438,6.41058-2.12844,9.61091a2.7571,2.7571,0,0,0,.61531,2.49426c1.90251,2.4012,3.74683,4.84849,5.61765,7.27485.18271.237.40628.44258.58792.68031,1.31612,1.72246,1.284,1.6903-.29016,3.11-2.3896,2.155-4.69652,4.40271-7.11126,6.5284a3.7448,3.7448,0,0,0-1.34671,3.35847c.21152,3.05575-.11413,6.12477.403,9.18638.36066,2.13525-.08359,2.40314-2.225,2.57393q-4.90641.39137-9.796.98285a3.45067,3.45067,0,0,0-2.68124,1.76317c-1.59307,2.6186-3.35722,5.13413-5.0798,7.67262-1.37386,2.02457-1.67849,2.04032-3.77174.80568-2.64168-1.55811-5.36509-2.9811-7.97016-4.59641a3.90628,3.90628,0,0,0-3.80054-.18456q-4.18908,1.604-8.42621,3.08129c-2.07582.72164-2.18771.67934-3.09356-1.26686-1.26241-2.71222-2.5225-5.4308-3.629-8.2083a4.50347,4.50347,0,0,0-3.38111-2.85522c-3.03171-.80645-6.026-1.75458-9.03043-2.662C304.87037,235.15468,304.08391,234.82779,304.2384,233.69447Z" transform="translate(-154.45002 -6.27025)"/><path class={classes.cls1} d="M383.51728,255.24077c-.69659,1.73363-2.41408,1.72292-3.72921,1.72484-3.81458.00561-7.52762.9287-11.32231.99771-1.0408.0189-2.01064.56412-3.08.47555a.83375.83375,0,0,0-.73792.43346c-1.34656,1.96168-2.70148,3.91782-4.01977,5.89838-.14713.221-.08161.58367-.11512.88106-1.966-1.64715-3.166-3.95051-4.93642-5.7653-.57035-.58464-.19191-1.144.12747-1.62081,1.36853-2.043,2.77381-4.06153,4.17787-6.0805a1.97268,1.97268,0,0,1,1.43761-.96609c2.88373-.2992,5.76-.70153,8.65045-.89472a58.20027,58.20027,0,0,0,6.63657-.81466,2.91792,2.91792,0,0,1,3.43011,1.36683A48.74945,48.74945,0,0,0,383.51728,255.24077Z" transform="translate(-154.45002 -6.27025)"/><path class={classes.cls1} d="M350.52609,280.93474c-1.32016-.37969-2.03649-1.48982-2.83546-2.44962-2.47889-2.97791-4.89117-6.01121-7.34062-9.01377-1.83929-2.25459-3.67583-4.50889-5.64628-6.65628-1.28838-1.40406-1.34576-1.55287-3.20125-.9178a50.75728,50.75728,0,0,1-5.95445,1.92683c-.16031-3.2172-.16522-3.23006,2.75991-4.34513,1.602-.61071,3.23061-1.15164,4.83422-1.75845a2.83239,2.83239,0,0,1,2.57726.19934c1.28718.75395,2.5463,1.56515,3.87679,2.23369,2.04024,1.02518,3.09193,2.999,4.51475,4.59719,1.87922,2.1108,3.56388,4.39465,5.33972,6.598.32782.4067.759.76706.74434,1.338C350.12425,275.444,351.01236,278.16205,350.52609,280.93474Z" transform="translate(-154.45002 -6.27025)"/></svg>