<svg width="37" height="36" viewBox="0 0 37 36" fill="none" xmlns="http://www.w3.org/2000/svg">
<path d="M31.0879 14.2031C31.0879 14.6016 30.9473 14.9766 30.666 15.2578L17.9395 27.9844C17.6582 28.2656 17.2598 28.4297 16.8613 28.4297C16.4863 28.4297 16.0879 28.2656 15.8066 27.9844L7.32227 19.5C7.04102 19.2188 6.90039 18.8437 6.90039 18.4453C6.90039 18.0469 7.04102 17.6484 7.32227 17.3672L9.45508 15.2578C9.73633 14.9766 10.1113 14.8125 10.5098 14.8125C10.9082 14.8125 11.2832 14.9766 11.5645 15.2578L16.8613 20.5547L26.4238 11.0156C26.7051 10.7344 27.0801 10.5703 27.4785 10.5703C27.877 10.5703 28.252 10.7344 28.5332 11.0156L30.666 13.125C30.9473 13.4062 31.0879 13.8047 31.0879 14.2031ZM36.9941 18C36.9941 8.0625 28.9316 -1.78814e-06 18.9941 -1.78814e-06C9.05664 -1.78814e-06 0.994141 8.0625 0.994141 18C0.994141 27.9375 9.05664 36 18.9941 36C28.9316 36 36.9941 27.9375 36.9941 18Z" fill="#46A818"/>
</svg>
