<?xml version="1.0" encoding="utf-8"?>
<!-- Generator: Adobe Illustrator 24.3.0, SVG Export Plug-In . SVG Version: 6.00 Build 0)  -->
<svg version="1.1" id="Layer_1" xmlns="http://www.w3.org/2000/svg" xmlns:xlink="http://www.w3.org/1999/xlink" x="0px" y="0px"
	 viewBox="0 0 32 32" style="enable-background:new 0 0 32 32;" xml:space="preserve">
<style type="text/css">
	.st0{fill:#1F4255;}
	.st1{fill:#7DC145;}
</style>
<g>
	<path class="st0" d="M29.9,8.1l-3.8,3.8c1.6,3.9,0.8,8.6-2.4,11.8C19.5,28,12.6,28,8.3,23.8C4,19.5,4,12.6,8.2,8.3
		c3-3,7.3-3.9,11.1-2.7l1.9-4.7c-5.6-2-12.2-0.7-16.7,3.8C-1.6,11-1.5,21.1,4.7,27.4c6.3,6.2,16.4,6.2,22.6-0.1
		C32.5,22.1,33.4,14.2,29.9,8.1"/>
	<path class="st1" d="M21,6.3c0.2,0.1,0.5,0.3,0.7,0.4l-7.8,7.8l3.6,3.6l5.9-5.9l1.9-1.9l3.6-3.7c-0.5-0.7-1-1.3-1.7-1.9
		c-1.3-1.3-2.8-2.3-4.3-3.1L21,6.3z"/>
</g>
</svg>
